<mxfile host="app.diagrams.net" modified="2023-09-24T18:30:35.253Z" agent="Mozilla/5.0 (Windows NT 10.0; Win64; x64) AppleWebKit/537.36 (KHTML, like Gecko) Chrome/117.0.0.0 Safari/537.36" etag="yKAQssMgpVTdPWhJBdRx" version="21.8.0" type="device">
  <diagram id="hnoT58Eis-5HMXE4jQOY" name="Página-2">
    <mxGraphModel dx="3521" dy="933" grid="1" gridSize="10" guides="1" tooltips="1" connect="1" arrows="1" fold="1" page="1" pageScale="1" pageWidth="827" pageHeight="1169" math="0" shadow="0">
      <root>
        <mxCell id="0" />
        <mxCell id="1" parent="0" />
        <mxCell id="OqRflm8WI9M_x9Ui0r0l-1" value="6. Se debe modelar la información necesaria para un vivero muy importante de la&lt;br&gt;ciudad.&lt;br&gt;&lt;br&gt;Resulta indispensable conocer la información de los empleados y clientes del vivero. De&lt;br&gt;ambos se registra: D.N.I, C.U.I.T, apellido, nombre, teléfonos de contacto, email si posee y&lt;br&gt;dirección detallada. &lt;br&gt;&lt;br&gt;En particular para los empleados debe registrarse además: fecha de&lt;br&gt;ingreso, fecha de nacimiento, cantidad de hijos y un número único de empleado. De los&lt;br&gt;clientes, se registra además el código único de cliente.&lt;br&gt;&lt;br&gt;El vivero ofrece diferentes artículos para jardinería: plantas, herramientas, macetas,&lt;br&gt;sustratos entre otros. De todos ellos se registra un número único de artículo, precio,&lt;br&gt;tamaño, nombre, stock y descripción.&lt;br&gt;&lt;br&gt;Se deben registrar las ventas realizadas. De cada venta se registra fecha, hora, cliente y el&lt;br&gt;empleado que se encarga de realizar la venta, además se deben registrar el/los artículos&lt;br&gt;vendidos y un número de ticket fiscal. De los artículos vendidos se debe almacenar precio&lt;br&gt;de venta y cantidad vendida.&lt;br&gt;&lt;br&gt;&lt;br&gt;El cliente puede abonar las compras en efectivo, con débito o crédito. Si abona con débito&lt;br&gt;o crédito, debe quedar registro del número de tarjeta, banco y entidad que la emite (visa,&lt;br&gt;mastercard,..). Del banco y entidad emisora se registra un nombre único y descripción. &lt;br&gt;&lt;br&gt;Si el pago es con crédito se debe registrar además la cantidad de cuotas en que realizó el&lt;br&gt;pago. Tenga en cuenta que la tarjeta se debe poder reutilizar en otros pagos y con otro nro&lt;br&gt;de cuotas. Si abona en efectivo se deberá dejar constancia de esto." style="text;whiteSpace=wrap;html=1;" vertex="1" parent="1">
          <mxGeometry x="120" y="12" width="550" height="468" as="geometry" />
        </mxCell>
        <mxCell id="OqRflm8WI9M_x9Ui0r0l-2" value="Empleados" style="rounded=0;whiteSpace=wrap;html=1;" vertex="1" parent="1">
          <mxGeometry x="-230" y="150" width="120" height="70" as="geometry" />
        </mxCell>
        <mxCell id="OqRflm8WI9M_x9Ui0r0l-5" value="" style="endArrow=none;html=1;rounded=0;entryX=0;entryY=0;entryDx=0;entryDy=0;exitX=1;exitY=1;exitDx=0;exitDy=0;" edge="1" source="OqRflm8WI9M_x9Ui0r0l-6" target="OqRflm8WI9M_x9Ui0r0l-2" parent="1">
          <mxGeometry width="50" height="50" relative="1" as="geometry">
            <mxPoint x="-120" y="60" as="sourcePoint" />
            <mxPoint x="-170" y="120" as="targetPoint" />
          </mxGeometry>
        </mxCell>
        <mxCell id="OqRflm8WI9M_x9Ui0r0l-6" value="" style="ellipse;whiteSpace=wrap;html=1;aspect=fixed;rotation=15;fillColor=#000000;" vertex="1" parent="1">
          <mxGeometry x="-270" y="100" width="20" height="20" as="geometry" />
        </mxCell>
        <mxCell id="OqRflm8WI9M_x9Ui0r0l-11" value="Nro emplado" style="text;html=1;align=center;verticalAlign=middle;resizable=0;points=[];autosize=1;strokeColor=none;fillColor=none;" vertex="1" parent="1">
          <mxGeometry x="-345" y="80" width="90" height="30" as="geometry" />
        </mxCell>
        <mxCell id="OqRflm8WI9M_x9Ui0r0l-18" value="" style="endArrow=none;html=1;rounded=0;entryX=0.25;entryY=0;entryDx=0;entryDy=0;" edge="1" source="OqRflm8WI9M_x9Ui0r0l-25" target="OqRflm8WI9M_x9Ui0r0l-2" parent="1">
          <mxGeometry width="50" height="50" relative="1" as="geometry">
            <mxPoint x="-215" y="100" as="sourcePoint" />
            <mxPoint x="-175" y="46" as="targetPoint" />
          </mxGeometry>
        </mxCell>
        <mxCell id="OqRflm8WI9M_x9Ui0r0l-19" value="" style="endArrow=none;html=1;rounded=0;exitX=1;exitY=0;exitDx=0;exitDy=0;entryX=0;entryY=0.5;entryDx=0;entryDy=0;" edge="1" source="OqRflm8WI9M_x9Ui0r0l-20" target="OqRflm8WI9M_x9Ui0r0l-59" parent="1">
          <mxGeometry width="50" height="50" relative="1" as="geometry">
            <mxPoint x="-710" y="516" as="sourcePoint" />
            <mxPoint x="-670" y="406" as="targetPoint" />
          </mxGeometry>
        </mxCell>
        <mxCell id="OqRflm8WI9M_x9Ui0r0l-20" value="" style="ellipse;whiteSpace=wrap;html=1;aspect=fixed;rotation=0;" vertex="1" parent="1">
          <mxGeometry x="-730" y="380" width="20" height="20" as="geometry" />
        </mxCell>
        <mxCell id="OqRflm8WI9M_x9Ui0r0l-21" value="Telefono 1,N" style="text;html=1;align=center;verticalAlign=middle;resizable=0;points=[];autosize=1;strokeColor=none;fillColor=none;" vertex="1" parent="1">
          <mxGeometry x="-820" y="375" width="90" height="30" as="geometry" />
        </mxCell>
        <mxCell id="OqRflm8WI9M_x9Ui0r0l-22" value="" style="endArrow=none;html=1;rounded=0;exitX=0;exitY=0.5;exitDx=0;exitDy=0;entryX=0;entryY=0.25;entryDx=0;entryDy=0;" edge="1" source="OqRflm8WI9M_x9Ui0r0l-23" target="OqRflm8WI9M_x9Ui0r0l-2" parent="1">
          <mxGeometry width="50" height="50" relative="1" as="geometry">
            <mxPoint x="-170" y="84" as="sourcePoint" />
            <mxPoint x="-165" y="130" as="targetPoint" />
          </mxGeometry>
        </mxCell>
        <mxCell id="OqRflm8WI9M_x9Ui0r0l-23" value="" style="ellipse;whiteSpace=wrap;html=1;aspect=fixed;rotation=-180;" vertex="1" parent="1">
          <mxGeometry x="-320" y="150" width="20" height="20" as="geometry" />
        </mxCell>
        <mxCell id="OqRflm8WI9M_x9Ui0r0l-24" value="Cantidad hijos" style="text;html=1;align=center;verticalAlign=middle;resizable=0;points=[];autosize=1;strokeColor=none;fillColor=none;" vertex="1" parent="1">
          <mxGeometry x="-420" y="140" width="100" height="30" as="geometry" />
        </mxCell>
        <mxCell id="OqRflm8WI9M_x9Ui0r0l-25" value="" style="ellipse;whiteSpace=wrap;html=1;aspect=fixed;rotation=45;" vertex="1" parent="1">
          <mxGeometry x="-225" y="80" width="20" height="20" as="geometry" />
        </mxCell>
        <mxCell id="OqRflm8WI9M_x9Ui0r0l-26" value="Fecha de ingreso" style="text;html=1;align=center;verticalAlign=middle;resizable=0;points=[];autosize=1;strokeColor=none;fillColor=none;" vertex="1" parent="1">
          <mxGeometry x="-280" y="50" width="120" height="30" as="geometry" />
        </mxCell>
        <mxCell id="OqRflm8WI9M_x9Ui0r0l-30" value="Clientes" style="rounded=0;whiteSpace=wrap;html=1;" vertex="1" parent="1">
          <mxGeometry x="-200" y="510" width="120" height="70" as="geometry" />
        </mxCell>
        <mxCell id="OqRflm8WI9M_x9Ui0r0l-35" value="" style="endArrow=none;html=1;rounded=0;entryX=0.5;entryY=0;entryDx=0;entryDy=0;exitX=1;exitY=1;exitDx=0;exitDy=0;" edge="1" source="OqRflm8WI9M_x9Ui0r0l-36" target="OqRflm8WI9M_x9Ui0r0l-30" parent="1">
          <mxGeometry width="50" height="50" relative="1" as="geometry">
            <mxPoint x="-140" y="460" as="sourcePoint" />
            <mxPoint x="-240" y="554" as="targetPoint" />
          </mxGeometry>
        </mxCell>
        <mxCell id="OqRflm8WI9M_x9Ui0r0l-36" value="" style="ellipse;whiteSpace=wrap;html=1;aspect=fixed;rotation=45;fillColor=#0A0A0A;" vertex="1" parent="1">
          <mxGeometry x="-150" y="463" width="20" height="20" as="geometry" />
        </mxCell>
        <mxCell id="OqRflm8WI9M_x9Ui0r0l-40" value="Apellido" style="text;html=1;align=center;verticalAlign=middle;resizable=0;points=[];autosize=1;strokeColor=none;fillColor=none;" vertex="1" parent="1">
          <mxGeometry x="-720" y="224" width="70" height="30" as="geometry" />
        </mxCell>
        <mxCell id="OqRflm8WI9M_x9Ui0r0l-41" value="Código unico" style="text;html=1;align=center;verticalAlign=middle;resizable=0;points=[];autosize=1;strokeColor=none;fillColor=none;" vertex="1" parent="1">
          <mxGeometry x="-185" y="433" width="90" height="30" as="geometry" />
        </mxCell>
        <mxCell id="OqRflm8WI9M_x9Ui0r0l-43" value="" style="endArrow=none;html=1;rounded=0;entryX=0;entryY=0.75;entryDx=0;entryDy=0;exitX=1;exitY=0;exitDx=0;exitDy=0;" edge="1" source="OqRflm8WI9M_x9Ui0r0l-44" target="OqRflm8WI9M_x9Ui0r0l-59" parent="1">
          <mxGeometry width="50" height="50" relative="1" as="geometry">
            <mxPoint x="-620" y="457" as="sourcePoint" />
            <mxPoint x="-540" y="399.5" as="targetPoint" />
          </mxGeometry>
        </mxCell>
        <mxCell id="OqRflm8WI9M_x9Ui0r0l-44" value="" style="ellipse;whiteSpace=wrap;html=1;aspect=fixed;rotation=15;" vertex="1" parent="1">
          <mxGeometry x="-720" y="422" width="20" height="20" as="geometry" />
        </mxCell>
        <mxCell id="OqRflm8WI9M_x9Ui0r0l-45" value="Correo 0,1" style="text;html=1;align=center;verticalAlign=middle;resizable=0;points=[];autosize=1;strokeColor=none;fillColor=none;" vertex="1" parent="1">
          <mxGeometry x="-800" y="417" width="80" height="30" as="geometry" />
        </mxCell>
        <mxCell id="OqRflm8WI9M_x9Ui0r0l-46" value="" style="endArrow=none;html=1;rounded=0;exitX=0.7;exitY=0;exitDx=0;exitDy=0;entryX=0.25;entryY=1;entryDx=0;entryDy=0;exitPerimeter=0;" edge="1" source="OqRflm8WI9M_x9Ui0r0l-47" target="OqRflm8WI9M_x9Ui0r0l-59" parent="1">
          <mxGeometry width="50" height="50" relative="1" as="geometry">
            <mxPoint x="-632.4118095489748" y="430.3407417371093" as="sourcePoint" />
            <mxPoint x="-620" y="400" as="targetPoint" />
          </mxGeometry>
        </mxCell>
        <mxCell id="OqRflm8WI9M_x9Ui0r0l-47" value="Direccion" style="ellipse;whiteSpace=wrap;html=1;" vertex="1" parent="1">
          <mxGeometry x="-670" y="438" width="60" height="30" as="geometry" />
        </mxCell>
        <mxCell id="OqRflm8WI9M_x9Ui0r0l-48" value="" style="endArrow=none;html=1;rounded=0;exitX=1;exitY=0.5;exitDx=0;exitDy=0;entryX=0;entryY=1;entryDx=0;entryDy=0;" edge="1" source="OqRflm8WI9M_x9Ui0r0l-51" target="OqRflm8WI9M_x9Ui0r0l-47" parent="1">
          <mxGeometry width="50" height="50" relative="1" as="geometry">
            <mxPoint x="-681.3397459621558" y="473.0000000000002" as="sourcePoint" />
            <mxPoint x="-670" y="460" as="targetPoint" />
          </mxGeometry>
        </mxCell>
        <mxCell id="OqRflm8WI9M_x9Ui0r0l-49" value="" style="ellipse;whiteSpace=wrap;html=1;aspect=fixed;rotation=15;" vertex="1" parent="1">
          <mxGeometry x="-680" y="500" width="20" height="20" as="geometry" />
        </mxCell>
        <mxCell id="OqRflm8WI9M_x9Ui0r0l-50" value="" style="endArrow=none;html=1;rounded=0;entryX=0.333;entryY=1.067;entryDx=0;entryDy=0;exitX=0.5;exitY=0;exitDx=0;exitDy=0;entryPerimeter=0;" edge="1" source="OqRflm8WI9M_x9Ui0r0l-49" target="OqRflm8WI9M_x9Ui0r0l-47" parent="1">
          <mxGeometry width="50" height="50" relative="1" as="geometry">
            <mxPoint x="-655.0000000000002" y="489.3397459621558" as="sourcePoint" />
            <mxPoint x="-625" y="470" as="targetPoint" />
          </mxGeometry>
        </mxCell>
        <mxCell id="OqRflm8WI9M_x9Ui0r0l-51" value="" style="ellipse;whiteSpace=wrap;html=1;aspect=fixed;rotation=-15;" vertex="1" parent="1">
          <mxGeometry x="-700" y="468" width="20" height="20" as="geometry" />
        </mxCell>
        <mxCell id="OqRflm8WI9M_x9Ui0r0l-52" value="" style="endArrow=none;html=1;rounded=0;entryX=0.5;entryY=1;entryDx=0;entryDy=0;exitX=1;exitY=0;exitDx=0;exitDy=0;" edge="1" source="OqRflm8WI9M_x9Ui0r0l-53" target="OqRflm8WI9M_x9Ui0r0l-47" parent="1">
          <mxGeometry width="50" height="50" relative="1" as="geometry">
            <mxPoint x="-325" y="691" as="sourcePoint" />
            <mxPoint x="-245" y="634" as="targetPoint" />
          </mxGeometry>
        </mxCell>
        <mxCell id="OqRflm8WI9M_x9Ui0r0l-53" value="" style="ellipse;whiteSpace=wrap;html=1;aspect=fixed;rotation=-150;direction=south;" vertex="1" parent="1">
          <mxGeometry x="-634.37" y="489.09" width="19.08" height="19.08" as="geometry" />
        </mxCell>
        <mxCell id="OqRflm8WI9M_x9Ui0r0l-54" value="Calle 1,1" style="text;html=1;align=center;verticalAlign=middle;resizable=0;points=[];autosize=1;strokeColor=none;fillColor=none;" vertex="1" parent="1">
          <mxGeometry x="-710" y="520" width="70" height="30" as="geometry" />
        </mxCell>
        <mxCell id="OqRflm8WI9M_x9Ui0r0l-55" value="Nro 1,1" style="text;html=1;align=center;verticalAlign=middle;resizable=0;points=[];autosize=1;strokeColor=none;fillColor=none;" vertex="1" parent="1">
          <mxGeometry x="-760" y="463" width="60" height="30" as="geometry" />
        </mxCell>
        <mxCell id="OqRflm8WI9M_x9Ui0r0l-59" value="Personas" style="rounded=0;whiteSpace=wrap;html=1;" vertex="1" parent="1">
          <mxGeometry x="-650.0000000000005" y="320" width="120" height="70" as="geometry" />
        </mxCell>
        <mxCell id="OqRflm8WI9M_x9Ui0r0l-65" value="" style="endArrow=none;html=1;rounded=0;entryX=0.011;entryY=0.122;entryDx=0;entryDy=0;exitX=0.875;exitY=0.283;exitDx=0;exitDy=0;exitPerimeter=0;entryPerimeter=0;" edge="1" parent="1" source="OqRflm8WI9M_x9Ui0r0l-66" target="OqRflm8WI9M_x9Ui0r0l-59">
          <mxGeometry width="50" height="50" relative="1" as="geometry">
            <mxPoint x="-775" y="368" as="sourcePoint" />
            <mxPoint x="-665" y="342" as="targetPoint" />
          </mxGeometry>
        </mxCell>
        <mxCell id="OqRflm8WI9M_x9Ui0r0l-66" value="" style="ellipse;whiteSpace=wrap;html=1;aspect=fixed;rotation=30;fillColor=#0A0A0A;" vertex="1" parent="1">
          <mxGeometry x="-720" y="294" width="20" height="20" as="geometry" />
        </mxCell>
        <mxCell id="OqRflm8WI9M_x9Ui0r0l-67" value="" style="endArrow=none;html=1;rounded=0;entryX=0;entryY=0.25;entryDx=0;entryDy=0;exitX=1;exitY=0.5;exitDx=0;exitDy=0;" edge="1" parent="1" source="OqRflm8WI9M_x9Ui0r0l-68" target="OqRflm8WI9M_x9Ui0r0l-59">
          <mxGeometry width="50" height="50" relative="1" as="geometry">
            <mxPoint x="-755" y="388" as="sourcePoint" />
            <mxPoint x="-665" y="359" as="targetPoint" />
          </mxGeometry>
        </mxCell>
        <mxCell id="OqRflm8WI9M_x9Ui0r0l-68" value="" style="ellipse;whiteSpace=wrap;html=1;aspect=fixed;fillColor=#0F0F0F;" vertex="1" parent="1">
          <mxGeometry x="-735" y="330" width="20" height="20" as="geometry" />
        </mxCell>
        <mxCell id="OqRflm8WI9M_x9Ui0r0l-69" value="DNI" style="text;html=1;align=center;verticalAlign=middle;resizable=0;points=[];autosize=1;strokeColor=none;fillColor=none;" vertex="1" parent="1">
          <mxGeometry x="-755" y="274" width="40" height="30" as="geometry" />
        </mxCell>
        <mxCell id="OqRflm8WI9M_x9Ui0r0l-70" value="CUIL" style="text;html=1;align=center;verticalAlign=middle;resizable=0;points=[];autosize=1;strokeColor=none;fillColor=none;" vertex="1" parent="1">
          <mxGeometry x="-780" y="325" width="50" height="30" as="geometry" />
        </mxCell>
        <mxCell id="OqRflm8WI9M_x9Ui0r0l-72" value="" style="endArrow=none;html=1;rounded=0;entryX=0;entryY=0;entryDx=0;entryDy=0;exitX=1;exitY=1;exitDx=0;exitDy=0;" edge="1" parent="1" source="OqRflm8WI9M_x9Ui0r0l-73" target="OqRflm8WI9M_x9Ui0r0l-59">
          <mxGeometry width="50" height="50" relative="1" as="geometry">
            <mxPoint x="-685" y="284" as="sourcePoint" />
            <mxPoint x="-665" y="304" as="targetPoint" />
          </mxGeometry>
        </mxCell>
        <mxCell id="OqRflm8WI9M_x9Ui0r0l-73" value="" style="ellipse;whiteSpace=wrap;html=1;aspect=fixed;rotation=30;" vertex="1" parent="1">
          <mxGeometry x="-680" y="254" width="20" height="20" as="geometry" />
        </mxCell>
        <mxCell id="OqRflm8WI9M_x9Ui0r0l-74" value="" style="endArrow=none;html=1;rounded=0;entryX=0.25;entryY=0;entryDx=0;entryDy=0;exitX=1;exitY=1;exitDx=0;exitDy=0;" edge="1" parent="1" source="OqRflm8WI9M_x9Ui0r0l-75" target="OqRflm8WI9M_x9Ui0r0l-59">
          <mxGeometry width="50" height="50" relative="1" as="geometry">
            <mxPoint x="-555" y="214" as="sourcePoint" />
            <mxPoint x="-635" y="304" as="targetPoint" />
          </mxGeometry>
        </mxCell>
        <mxCell id="OqRflm8WI9M_x9Ui0r0l-75" value="" style="ellipse;whiteSpace=wrap;html=1;aspect=fixed;rotation=60;" vertex="1" parent="1">
          <mxGeometry x="-620" y="254" width="20" height="20" as="geometry" />
        </mxCell>
        <mxCell id="OqRflm8WI9M_x9Ui0r0l-76" value="Nombre" style="text;html=1;align=center;verticalAlign=middle;resizable=0;points=[];autosize=1;strokeColor=none;fillColor=none;" vertex="1" parent="1">
          <mxGeometry x="-650" y="234" width="70" height="30" as="geometry" />
        </mxCell>
        <mxCell id="OqRflm8WI9M_x9Ui0r0l-77" value="Piso 0,1" style="text;html=1;align=center;verticalAlign=middle;resizable=0;points=[];autosize=1;strokeColor=none;fillColor=none;" vertex="1" parent="1">
          <mxGeometry x="-645" y="518" width="70" height="30" as="geometry" />
        </mxCell>
        <mxCell id="OqRflm8WI9M_x9Ui0r0l-78" value="" style="endArrow=none;html=1;rounded=0;entryX=1;entryY=1;entryDx=0;entryDy=0;exitX=0.5;exitY=0;exitDx=0;exitDy=0;" edge="1" source="OqRflm8WI9M_x9Ui0r0l-79" parent="1" target="OqRflm8WI9M_x9Ui0r0l-47">
          <mxGeometry width="50" height="50" relative="1" as="geometry">
            <mxPoint x="-555" y="468" as="sourcePoint" />
            <mxPoint x="-555" y="431" as="targetPoint" />
          </mxGeometry>
        </mxCell>
        <mxCell id="OqRflm8WI9M_x9Ui0r0l-79" value="" style="ellipse;whiteSpace=wrap;html=1;aspect=fixed;rotation=-45;" vertex="1" parent="1">
          <mxGeometry x="-600" y="476" width="20" height="20" as="geometry" />
        </mxCell>
        <mxCell id="OqRflm8WI9M_x9Ui0r0l-80" value="Dpto 0,1" style="text;html=1;align=center;verticalAlign=middle;resizable=0;points=[];autosize=1;strokeColor=none;fillColor=none;" vertex="1" parent="1">
          <mxGeometry x="-590" y="480" width="70" height="30" as="geometry" />
        </mxCell>
        <mxCell id="OqRflm8WI9M_x9Ui0r0l-82" value="" style="endArrow=none;html=1;rounded=0;" edge="1" parent="1">
          <mxGeometry width="50" height="50" relative="1" as="geometry">
            <mxPoint x="-440" y="410" as="sourcePoint" />
            <mxPoint x="-440" y="300" as="targetPoint" />
          </mxGeometry>
        </mxCell>
        <mxCell id="OqRflm8WI9M_x9Ui0r0l-85" value="" style="endArrow=classic;html=1;rounded=0;entryX=1;entryY=0.5;entryDx=0;entryDy=0;" edge="1" parent="1" target="OqRflm8WI9M_x9Ui0r0l-59">
          <mxGeometry width="50" height="50" relative="1" as="geometry">
            <mxPoint x="-440" y="355" as="sourcePoint" />
            <mxPoint x="-440" y="340" as="targetPoint" />
          </mxGeometry>
        </mxCell>
        <mxCell id="OqRflm8WI9M_x9Ui0r0l-87" value="" style="endArrow=none;html=1;rounded=0;exitX=0.014;exitY=0.569;exitDx=0;exitDy=0;exitPerimeter=0;" edge="1" parent="1" source="OqRflm8WI9M_x9Ui0r0l-30">
          <mxGeometry width="50" height="50" relative="1" as="geometry">
            <mxPoint x="-320" y="510" as="sourcePoint" />
            <mxPoint x="-440" y="410" as="targetPoint" />
          </mxGeometry>
        </mxCell>
        <mxCell id="OqRflm8WI9M_x9Ui0r0l-88" value="" style="endArrow=none;html=1;rounded=0;entryX=0;entryY=0.5;entryDx=0;entryDy=0;" edge="1" parent="1" target="OqRflm8WI9M_x9Ui0r0l-2">
          <mxGeometry width="50" height="50" relative="1" as="geometry">
            <mxPoint x="-440" y="300" as="sourcePoint" />
            <mxPoint x="-270" y="190" as="targetPoint" />
          </mxGeometry>
        </mxCell>
        <mxCell id="OqRflm8WI9M_x9Ui0r0l-89" value="T,E" style="text;html=1;align=center;verticalAlign=middle;resizable=0;points=[];autosize=1;strokeColor=none;fillColor=none;" vertex="1" parent="1">
          <mxGeometry x="-440" y="338" width="40" height="30" as="geometry" />
        </mxCell>
        <mxCell id="OqRflm8WI9M_x9Ui0r0l-90" value="Articulos" style="rounded=0;whiteSpace=wrap;html=1;" vertex="1" parent="1">
          <mxGeometry x="799.9999999999995" y="100" width="120" height="70" as="geometry" />
        </mxCell>
        <mxCell id="OqRflm8WI9M_x9Ui0r0l-91" value="" style="endArrow=none;html=1;rounded=0;entryX=0;entryY=0;entryDx=0;entryDy=0;exitX=1;exitY=1;exitDx=0;exitDy=0;" edge="1" source="OqRflm8WI9M_x9Ui0r0l-92" target="OqRflm8WI9M_x9Ui0r0l-90" parent="1">
          <mxGeometry width="50" height="50" relative="1" as="geometry">
            <mxPoint x="909.9999999999995" y="10" as="sourcePoint" />
            <mxPoint x="859.9999999999995" y="70" as="targetPoint" />
          </mxGeometry>
        </mxCell>
        <mxCell id="OqRflm8WI9M_x9Ui0r0l-92" value="" style="ellipse;whiteSpace=wrap;html=1;aspect=fixed;rotation=-20;" vertex="1" parent="1">
          <mxGeometry x="749.9999999999995" y="60" width="20" height="20" as="geometry" />
        </mxCell>
        <mxCell id="OqRflm8WI9M_x9Ui0r0l-93" value="" style="endArrow=none;html=1;rounded=0;entryX=0;entryY=0.25;entryDx=0;entryDy=0;exitX=0.875;exitY=0.283;exitDx=0;exitDy=0;exitPerimeter=0;" edge="1" source="OqRflm8WI9M_x9Ui0r0l-94" target="OqRflm8WI9M_x9Ui0r0l-90" parent="1">
          <mxGeometry width="50" height="50" relative="1" as="geometry">
            <mxPoint x="689.9999999999995" y="144" as="sourcePoint" />
            <mxPoint x="759.9999999999995" y="144" as="targetPoint" />
          </mxGeometry>
        </mxCell>
        <mxCell id="OqRflm8WI9M_x9Ui0r0l-94" value="" style="ellipse;whiteSpace=wrap;html=1;aspect=fixed;rotation=30;fillColor=#0A0A0A;" vertex="1" parent="1">
          <mxGeometry x="739.9999999999995" y="100" width="20" height="20" as="geometry" />
        </mxCell>
        <mxCell id="OqRflm8WI9M_x9Ui0r0l-95" value="Preico" style="text;html=1;align=center;verticalAlign=middle;resizable=0;points=[];autosize=1;strokeColor=none;fillColor=none;" vertex="1" parent="1">
          <mxGeometry x="689.9999999999995" y="50" width="60" height="30" as="geometry" />
        </mxCell>
        <mxCell id="OqRflm8WI9M_x9Ui0r0l-96" value="Nro unico" style="text;html=1;align=center;verticalAlign=middle;resizable=0;points=[];autosize=1;strokeColor=none;fillColor=none;" vertex="1" parent="1">
          <mxGeometry x="670" y="90" width="70" height="30" as="geometry" />
        </mxCell>
        <mxCell id="OqRflm8WI9M_x9Ui0r0l-98" value="" style="endArrow=none;html=1;rounded=0;exitX=1;exitY=0.5;exitDx=0;exitDy=0;entryX=0;entryY=0.5;entryDx=0;entryDy=0;" edge="1" source="OqRflm8WI9M_x9Ui0r0l-99" parent="1" target="OqRflm8WI9M_x9Ui0r0l-90">
          <mxGeometry width="50" height="50" relative="1" as="geometry">
            <mxPoint x="730" y="151" as="sourcePoint" />
            <mxPoint x="735" y="197" as="targetPoint" />
          </mxGeometry>
        </mxCell>
        <mxCell id="OqRflm8WI9M_x9Ui0r0l-99" value="" style="ellipse;whiteSpace=wrap;html=1;aspect=fixed;" vertex="1" parent="1">
          <mxGeometry x="740" y="136" width="20" height="20" as="geometry" />
        </mxCell>
        <mxCell id="OqRflm8WI9M_x9Ui0r0l-100" value="tamaño" style="text;html=1;align=center;verticalAlign=middle;resizable=0;points=[];autosize=1;strokeColor=none;fillColor=none;" vertex="1" parent="1">
          <mxGeometry x="680" y="131" width="60" height="30" as="geometry" />
        </mxCell>
        <mxCell id="OqRflm8WI9M_x9Ui0r0l-101" value="" style="endArrow=none;html=1;rounded=0;entryX=0;entryY=1;entryDx=0;entryDy=0;exitX=0.5;exitY=0;exitDx=0;exitDy=0;" edge="1" source="OqRflm8WI9M_x9Ui0r0l-102" parent="1" target="OqRflm8WI9M_x9Ui0r0l-90">
          <mxGeometry width="50" height="50" relative="1" as="geometry">
            <mxPoint x="810" y="225" as="sourcePoint" />
            <mxPoint x="810" y="188" as="targetPoint" />
          </mxGeometry>
        </mxCell>
        <mxCell id="OqRflm8WI9M_x9Ui0r0l-102" value="" style="ellipse;whiteSpace=wrap;html=1;aspect=fixed;" vertex="1" parent="1">
          <mxGeometry x="790" y="204" width="20" height="20" as="geometry" />
        </mxCell>
        <mxCell id="OqRflm8WI9M_x9Ui0r0l-103" value="Nombre" style="text;html=1;align=center;verticalAlign=middle;resizable=0;points=[];autosize=1;strokeColor=none;fillColor=none;" vertex="1" parent="1">
          <mxGeometry x="760" y="220" width="70" height="30" as="geometry" />
        </mxCell>
        <mxCell id="OqRflm8WI9M_x9Ui0r0l-105" value="" style="endArrow=none;html=1;rounded=0;exitX=1;exitY=0;exitDx=0;exitDy=0;entryX=0;entryY=0.75;entryDx=0;entryDy=0;" edge="1" source="OqRflm8WI9M_x9Ui0r0l-106" parent="1" target="OqRflm8WI9M_x9Ui0r0l-90">
          <mxGeometry width="50" height="50" relative="1" as="geometry">
            <mxPoint x="720" y="197" as="sourcePoint" />
            <mxPoint x="725" y="243" as="targetPoint" />
          </mxGeometry>
        </mxCell>
        <mxCell id="OqRflm8WI9M_x9Ui0r0l-106" value="" style="ellipse;whiteSpace=wrap;html=1;aspect=fixed;" vertex="1" parent="1">
          <mxGeometry x="740" y="175" width="20" height="20" as="geometry" />
        </mxCell>
        <mxCell id="OqRflm8WI9M_x9Ui0r0l-107" value="Stock" style="text;html=1;align=center;verticalAlign=middle;resizable=0;points=[];autosize=1;strokeColor=none;fillColor=none;" vertex="1" parent="1">
          <mxGeometry x="685" y="174" width="50" height="30" as="geometry" />
        </mxCell>
        <mxCell id="OqRflm8WI9M_x9Ui0r0l-110" value="" style="endArrow=none;html=1;rounded=0;exitX=0.5;exitY=0;exitDx=0;exitDy=0;entryX=0.25;entryY=0;entryDx=0;entryDy=0;" edge="1" source="OqRflm8WI9M_x9Ui0r0l-111" parent="1" target="OqRflm8WI9M_x9Ui0r0l-90">
          <mxGeometry width="50" height="50" relative="1" as="geometry">
            <mxPoint x="807" y="47" as="sourcePoint" />
            <mxPoint x="812" y="93" as="targetPoint" />
          </mxGeometry>
        </mxCell>
        <mxCell id="OqRflm8WI9M_x9Ui0r0l-111" value="" style="ellipse;whiteSpace=wrap;html=1;aspect=fixed;rotation=-225;" vertex="1" parent="1">
          <mxGeometry x="780" y="40" width="20" height="20" as="geometry" />
        </mxCell>
        <mxCell id="OqRflm8WI9M_x9Ui0r0l-112" value="Desc" style="text;html=1;align=center;verticalAlign=middle;resizable=0;points=[];autosize=1;strokeColor=none;fillColor=none;" vertex="1" parent="1">
          <mxGeometry x="750" y="10" width="50" height="30" as="geometry" />
        </mxCell>
        <mxCell id="OqRflm8WI9M_x9Ui0r0l-123" value="Empleados" style="rounded=0;whiteSpace=wrap;html=1;" vertex="1" parent="1">
          <mxGeometry x="20" y="1000" width="120" height="70" as="geometry" />
        </mxCell>
        <mxCell id="OqRflm8WI9M_x9Ui0r0l-124" value="" style="endArrow=none;html=1;rounded=0;entryX=0;entryY=0;entryDx=0;entryDy=0;exitX=1;exitY=1;exitDx=0;exitDy=0;" edge="1" parent="1" source="OqRflm8WI9M_x9Ui0r0l-125" target="OqRflm8WI9M_x9Ui0r0l-123">
          <mxGeometry width="50" height="50" relative="1" as="geometry">
            <mxPoint x="130" y="910" as="sourcePoint" />
            <mxPoint x="80" y="970" as="targetPoint" />
          </mxGeometry>
        </mxCell>
        <mxCell id="OqRflm8WI9M_x9Ui0r0l-125" value="" style="ellipse;whiteSpace=wrap;html=1;aspect=fixed;rotation=15;fillColor=#000000;" vertex="1" parent="1">
          <mxGeometry x="-20" y="950" width="20" height="20" as="geometry" />
        </mxCell>
        <mxCell id="OqRflm8WI9M_x9Ui0r0l-126" value="Nro emplado" style="text;html=1;align=center;verticalAlign=middle;resizable=0;points=[];autosize=1;strokeColor=none;fillColor=none;" vertex="1" parent="1">
          <mxGeometry x="-95" y="930" width="90" height="30" as="geometry" />
        </mxCell>
        <mxCell id="OqRflm8WI9M_x9Ui0r0l-127" value="" style="endArrow=none;html=1;rounded=0;entryX=0.25;entryY=0;entryDx=0;entryDy=0;" edge="1" parent="1" source="OqRflm8WI9M_x9Ui0r0l-134" target="OqRflm8WI9M_x9Ui0r0l-123">
          <mxGeometry width="50" height="50" relative="1" as="geometry">
            <mxPoint x="35" y="950" as="sourcePoint" />
            <mxPoint x="75" y="896" as="targetPoint" />
          </mxGeometry>
        </mxCell>
        <mxCell id="OqRflm8WI9M_x9Ui0r0l-128" value="" style="endArrow=none;html=1;rounded=0;exitX=1;exitY=0.5;exitDx=0;exitDy=0;entryX=0;entryY=0.5;entryDx=0;entryDy=0;" edge="1" parent="1" source="GS_6FIzJK1WKwpxB1ejN-3" target="OqRflm8WI9M_x9Ui0r0l-154">
          <mxGeometry width="50" height="50" relative="1" as="geometry">
            <mxPoint x="-462.92893218813447" y="1232.928932188134" as="sourcePoint" />
            <mxPoint x="-420" y="1256" as="targetPoint" />
          </mxGeometry>
        </mxCell>
        <mxCell id="OqRflm8WI9M_x9Ui0r0l-131" value="" style="endArrow=none;html=1;rounded=0;exitX=0;exitY=0.5;exitDx=0;exitDy=0;entryX=0;entryY=0.25;entryDx=0;entryDy=0;" edge="1" parent="1" source="OqRflm8WI9M_x9Ui0r0l-132" target="OqRflm8WI9M_x9Ui0r0l-123">
          <mxGeometry width="50" height="50" relative="1" as="geometry">
            <mxPoint x="80" y="934" as="sourcePoint" />
            <mxPoint x="85" y="980" as="targetPoint" />
          </mxGeometry>
        </mxCell>
        <mxCell id="OqRflm8WI9M_x9Ui0r0l-132" value="" style="ellipse;whiteSpace=wrap;html=1;aspect=fixed;rotation=-180;" vertex="1" parent="1">
          <mxGeometry x="-70" y="1000" width="20" height="20" as="geometry" />
        </mxCell>
        <mxCell id="OqRflm8WI9M_x9Ui0r0l-133" value="Cantidad hijos" style="text;html=1;align=center;verticalAlign=middle;resizable=0;points=[];autosize=1;strokeColor=none;fillColor=none;" vertex="1" parent="1">
          <mxGeometry x="-170" y="990" width="100" height="30" as="geometry" />
        </mxCell>
        <mxCell id="OqRflm8WI9M_x9Ui0r0l-134" value="" style="ellipse;whiteSpace=wrap;html=1;aspect=fixed;rotation=45;" vertex="1" parent="1">
          <mxGeometry x="25" y="930" width="20" height="20" as="geometry" />
        </mxCell>
        <mxCell id="OqRflm8WI9M_x9Ui0r0l-135" value="Fecha de ingreso" style="text;html=1;align=center;verticalAlign=middle;resizable=0;points=[];autosize=1;strokeColor=none;fillColor=none;" vertex="1" parent="1">
          <mxGeometry x="-30" y="900" width="120" height="30" as="geometry" />
        </mxCell>
        <mxCell id="OqRflm8WI9M_x9Ui0r0l-136" value="Clientes" style="rounded=0;whiteSpace=wrap;html=1;" vertex="1" parent="1">
          <mxGeometry x="50" y="1360" width="120" height="70" as="geometry" />
        </mxCell>
        <mxCell id="OqRflm8WI9M_x9Ui0r0l-137" value="" style="endArrow=none;html=1;rounded=0;entryX=0.5;entryY=0;entryDx=0;entryDy=0;exitX=1;exitY=1;exitDx=0;exitDy=0;" edge="1" parent="1" source="OqRflm8WI9M_x9Ui0r0l-138" target="OqRflm8WI9M_x9Ui0r0l-136">
          <mxGeometry width="50" height="50" relative="1" as="geometry">
            <mxPoint x="110" y="1310" as="sourcePoint" />
            <mxPoint x="10" y="1404" as="targetPoint" />
          </mxGeometry>
        </mxCell>
        <mxCell id="OqRflm8WI9M_x9Ui0r0l-138" value="" style="ellipse;whiteSpace=wrap;html=1;aspect=fixed;rotation=45;fillColor=#0A0A0A;" vertex="1" parent="1">
          <mxGeometry x="100" y="1313" width="20" height="20" as="geometry" />
        </mxCell>
        <mxCell id="OqRflm8WI9M_x9Ui0r0l-139" value="Apellido" style="text;html=1;align=center;verticalAlign=middle;resizable=0;points=[];autosize=1;strokeColor=none;fillColor=none;" vertex="1" parent="1">
          <mxGeometry x="-470" y="1074" width="70" height="30" as="geometry" />
        </mxCell>
        <mxCell id="OqRflm8WI9M_x9Ui0r0l-140" value="Código unico" style="text;html=1;align=center;verticalAlign=middle;resizable=0;points=[];autosize=1;strokeColor=none;fillColor=none;" vertex="1" parent="1">
          <mxGeometry x="65" y="1283" width="90" height="30" as="geometry" />
        </mxCell>
        <mxCell id="OqRflm8WI9M_x9Ui0r0l-141" value="" style="endArrow=none;html=1;rounded=0;entryX=0;entryY=0.75;entryDx=0;entryDy=0;exitX=1;exitY=0;exitDx=0;exitDy=0;" edge="1" parent="1" source="OqRflm8WI9M_x9Ui0r0l-142" target="OqRflm8WI9M_x9Ui0r0l-154">
          <mxGeometry width="50" height="50" relative="1" as="geometry">
            <mxPoint x="-370" y="1307" as="sourcePoint" />
            <mxPoint x="-290" y="1249.5" as="targetPoint" />
          </mxGeometry>
        </mxCell>
        <mxCell id="OqRflm8WI9M_x9Ui0r0l-142" value="" style="ellipse;whiteSpace=wrap;html=1;aspect=fixed;rotation=15;" vertex="1" parent="1">
          <mxGeometry x="-470" y="1272" width="20" height="20" as="geometry" />
        </mxCell>
        <mxCell id="OqRflm8WI9M_x9Ui0r0l-143" value="Correo 0,1" style="text;html=1;align=center;verticalAlign=middle;resizable=0;points=[];autosize=1;strokeColor=none;fillColor=none;" vertex="1" parent="1">
          <mxGeometry x="-550" y="1267" width="80" height="30" as="geometry" />
        </mxCell>
        <mxCell id="OqRflm8WI9M_x9Ui0r0l-144" value="" style="endArrow=none;html=1;rounded=0;exitX=0.5;exitY=0;exitDx=0;exitDy=0;entryX=0.25;entryY=1;entryDx=0;entryDy=0;" edge="1" parent="1" source="GS_6FIzJK1WKwpxB1ejN-1" target="OqRflm8WI9M_x9Ui0r0l-154">
          <mxGeometry width="50" height="50" relative="1" as="geometry">
            <mxPoint x="-378" y="1288" as="sourcePoint" />
            <mxPoint x="-370" y="1250" as="targetPoint" />
          </mxGeometry>
        </mxCell>
        <mxCell id="OqRflm8WI9M_x9Ui0r0l-154" value="Personas" style="rounded=0;whiteSpace=wrap;html=1;" vertex="1" parent="1">
          <mxGeometry x="-400.00000000000045" y="1170" width="120" height="70" as="geometry" />
        </mxCell>
        <mxCell id="OqRflm8WI9M_x9Ui0r0l-155" value="" style="endArrow=none;html=1;rounded=0;entryX=0.011;entryY=0.122;entryDx=0;entryDy=0;exitX=0.875;exitY=0.283;exitDx=0;exitDy=0;exitPerimeter=0;entryPerimeter=0;" edge="1" parent="1" source="OqRflm8WI9M_x9Ui0r0l-156" target="OqRflm8WI9M_x9Ui0r0l-154">
          <mxGeometry width="50" height="50" relative="1" as="geometry">
            <mxPoint x="-525" y="1218" as="sourcePoint" />
            <mxPoint x="-415" y="1192" as="targetPoint" />
          </mxGeometry>
        </mxCell>
        <mxCell id="OqRflm8WI9M_x9Ui0r0l-156" value="" style="ellipse;whiteSpace=wrap;html=1;aspect=fixed;rotation=30;fillColor=#0A0A0A;" vertex="1" parent="1">
          <mxGeometry x="-470" y="1144" width="20" height="20" as="geometry" />
        </mxCell>
        <mxCell id="OqRflm8WI9M_x9Ui0r0l-157" value="" style="endArrow=none;html=1;rounded=0;entryX=0;entryY=0.25;entryDx=0;entryDy=0;exitX=1;exitY=0.5;exitDx=0;exitDy=0;" edge="1" parent="1" source="OqRflm8WI9M_x9Ui0r0l-158" target="OqRflm8WI9M_x9Ui0r0l-154">
          <mxGeometry width="50" height="50" relative="1" as="geometry">
            <mxPoint x="-505" y="1238" as="sourcePoint" />
            <mxPoint x="-415" y="1209" as="targetPoint" />
          </mxGeometry>
        </mxCell>
        <mxCell id="OqRflm8WI9M_x9Ui0r0l-158" value="" style="ellipse;whiteSpace=wrap;html=1;aspect=fixed;fillColor=#0F0F0F;" vertex="1" parent="1">
          <mxGeometry x="-485" y="1180" width="20" height="20" as="geometry" />
        </mxCell>
        <mxCell id="OqRflm8WI9M_x9Ui0r0l-159" value="DNI" style="text;html=1;align=center;verticalAlign=middle;resizable=0;points=[];autosize=1;strokeColor=none;fillColor=none;" vertex="1" parent="1">
          <mxGeometry x="-505" y="1124" width="40" height="30" as="geometry" />
        </mxCell>
        <mxCell id="OqRflm8WI9M_x9Ui0r0l-160" value="CUIL" style="text;html=1;align=center;verticalAlign=middle;resizable=0;points=[];autosize=1;strokeColor=none;fillColor=none;" vertex="1" parent="1">
          <mxGeometry x="-530" y="1175" width="50" height="30" as="geometry" />
        </mxCell>
        <mxCell id="OqRflm8WI9M_x9Ui0r0l-161" value="" style="endArrow=none;html=1;rounded=0;entryX=0;entryY=0;entryDx=0;entryDy=0;exitX=1;exitY=1;exitDx=0;exitDy=0;" edge="1" parent="1" source="OqRflm8WI9M_x9Ui0r0l-162" target="OqRflm8WI9M_x9Ui0r0l-154">
          <mxGeometry width="50" height="50" relative="1" as="geometry">
            <mxPoint x="-435" y="1134" as="sourcePoint" />
            <mxPoint x="-415" y="1154" as="targetPoint" />
          </mxGeometry>
        </mxCell>
        <mxCell id="OqRflm8WI9M_x9Ui0r0l-162" value="" style="ellipse;whiteSpace=wrap;html=1;aspect=fixed;rotation=30;" vertex="1" parent="1">
          <mxGeometry x="-430" y="1104" width="20" height="20" as="geometry" />
        </mxCell>
        <mxCell id="OqRflm8WI9M_x9Ui0r0l-163" value="" style="endArrow=none;html=1;rounded=0;entryX=0.25;entryY=0;entryDx=0;entryDy=0;exitX=1;exitY=1;exitDx=0;exitDy=0;" edge="1" parent="1" source="OqRflm8WI9M_x9Ui0r0l-164" target="OqRflm8WI9M_x9Ui0r0l-154">
          <mxGeometry width="50" height="50" relative="1" as="geometry">
            <mxPoint x="-305" y="1064" as="sourcePoint" />
            <mxPoint x="-385" y="1154" as="targetPoint" />
          </mxGeometry>
        </mxCell>
        <mxCell id="OqRflm8WI9M_x9Ui0r0l-164" value="" style="ellipse;whiteSpace=wrap;html=1;aspect=fixed;rotation=60;" vertex="1" parent="1">
          <mxGeometry x="-370" y="1104" width="20" height="20" as="geometry" />
        </mxCell>
        <mxCell id="OqRflm8WI9M_x9Ui0r0l-165" value="Nombre" style="text;html=1;align=center;verticalAlign=middle;resizable=0;points=[];autosize=1;strokeColor=none;fillColor=none;" vertex="1" parent="1">
          <mxGeometry x="-400" y="1084" width="70" height="30" as="geometry" />
        </mxCell>
        <mxCell id="OqRflm8WI9M_x9Ui0r0l-175" value="Venta" style="rounded=0;whiteSpace=wrap;html=1;" vertex="1" parent="1">
          <mxGeometry x="509.99999999999955" y="1144" width="120" height="70" as="geometry" />
        </mxCell>
        <mxCell id="OqRflm8WI9M_x9Ui0r0l-176" value="" style="endArrow=none;html=1;rounded=0;entryX=0;entryY=0;entryDx=0;entryDy=0;exitX=0.5;exitY=1;exitDx=0;exitDy=0;" edge="1" source="OqRflm8WI9M_x9Ui0r0l-177" target="OqRflm8WI9M_x9Ui0r0l-175" parent="1">
          <mxGeometry width="50" height="50" relative="1" as="geometry">
            <mxPoint x="510" y="1120" as="sourcePoint" />
            <mxPoint x="569.9999999999995" y="1114" as="targetPoint" />
          </mxGeometry>
        </mxCell>
        <mxCell id="OqRflm8WI9M_x9Ui0r0l-177" value="" style="ellipse;whiteSpace=wrap;html=1;aspect=fixed;rotation=0;" vertex="1" parent="1">
          <mxGeometry x="499.99999999999955" y="1094" width="20" height="20" as="geometry" />
        </mxCell>
        <mxCell id="OqRflm8WI9M_x9Ui0r0l-180" value="Hora" style="text;html=1;align=center;verticalAlign=middle;resizable=0;points=[];autosize=1;strokeColor=none;fillColor=none;" vertex="1" parent="1">
          <mxGeometry x="484.99999999999955" y="1064" width="50" height="30" as="geometry" />
        </mxCell>
        <mxCell id="OqRflm8WI9M_x9Ui0r0l-181" value="Realiza" style="rhombus;whiteSpace=wrap;html=1;" vertex="1" parent="1">
          <mxGeometry x="300" y="1100" width="50" height="50" as="geometry" />
        </mxCell>
        <mxCell id="OqRflm8WI9M_x9Ui0r0l-183" value="Paga" style="rhombus;whiteSpace=wrap;html=1;" vertex="1" parent="1">
          <mxGeometry x="300" y="1205" width="50" height="50" as="geometry" />
        </mxCell>
        <mxCell id="OqRflm8WI9M_x9Ui0r0l-184" value="" style="endArrow=none;html=1;rounded=0;exitX=1;exitY=0;exitDx=0;exitDy=0;entryX=0;entryY=0.5;entryDx=0;entryDy=0;" edge="1" parent="1" source="OqRflm8WI9M_x9Ui0r0l-136" target="OqRflm8WI9M_x9Ui0r0l-183">
          <mxGeometry width="50" height="50" relative="1" as="geometry">
            <mxPoint x="200" y="1350" as="sourcePoint" />
            <mxPoint x="250" y="1300" as="targetPoint" />
          </mxGeometry>
        </mxCell>
        <mxCell id="OqRflm8WI9M_x9Ui0r0l-185" value="" style="endArrow=none;html=1;rounded=0;exitX=1;exitY=0.5;exitDx=0;exitDy=0;entryX=0;entryY=0.75;entryDx=0;entryDy=0;" edge="1" parent="1" source="OqRflm8WI9M_x9Ui0r0l-183" target="OqRflm8WI9M_x9Ui0r0l-175">
          <mxGeometry width="50" height="50" relative="1" as="geometry">
            <mxPoint x="350" y="1250" as="sourcePoint" />
            <mxPoint x="400" y="1200" as="targetPoint" />
          </mxGeometry>
        </mxCell>
        <mxCell id="OqRflm8WI9M_x9Ui0r0l-186" value="" style="endArrow=none;html=1;rounded=0;exitX=1;exitY=1;exitDx=0;exitDy=0;entryX=0;entryY=0.5;entryDx=0;entryDy=0;" edge="1" parent="1" source="OqRflm8WI9M_x9Ui0r0l-123" target="OqRflm8WI9M_x9Ui0r0l-181">
          <mxGeometry width="50" height="50" relative="1" as="geometry">
            <mxPoint x="180" y="1070" as="sourcePoint" />
            <mxPoint x="230" y="1020" as="targetPoint" />
          </mxGeometry>
        </mxCell>
        <mxCell id="OqRflm8WI9M_x9Ui0r0l-187" value="" style="endArrow=none;html=1;rounded=0;entryX=0.012;entryY=0.394;entryDx=0;entryDy=0;entryPerimeter=0;" edge="1" parent="1" target="OqRflm8WI9M_x9Ui0r0l-175">
          <mxGeometry width="50" height="50" relative="1" as="geometry">
            <mxPoint x="350" y="1125" as="sourcePoint" />
            <mxPoint x="430" y="1070" as="targetPoint" />
          </mxGeometry>
        </mxCell>
        <mxCell id="OqRflm8WI9M_x9Ui0r0l-188" value="" style="endArrow=none;html=1;rounded=0;entryX=0;entryY=1;entryDx=0;entryDy=0;exitX=0.5;exitY=0;exitDx=0;exitDy=0;" edge="1" source="OqRflm8WI9M_x9Ui0r0l-189" parent="1" target="OqRflm8WI9M_x9Ui0r0l-175">
          <mxGeometry width="50" height="50" relative="1" as="geometry">
            <mxPoint x="555" y="1277" as="sourcePoint" />
            <mxPoint x="555" y="1240" as="targetPoint" />
          </mxGeometry>
        </mxCell>
        <mxCell id="OqRflm8WI9M_x9Ui0r0l-189" value="" style="ellipse;whiteSpace=wrap;html=1;aspect=fixed;" vertex="1" parent="1">
          <mxGeometry x="500" y="1250" width="20" height="20" as="geometry" />
        </mxCell>
        <mxCell id="OqRflm8WI9M_x9Ui0r0l-190" value="Fecha" style="text;html=1;align=center;verticalAlign=middle;resizable=0;points=[];autosize=1;strokeColor=none;fillColor=none;" vertex="1" parent="1">
          <mxGeometry x="475" y="1267" width="60" height="30" as="geometry" />
        </mxCell>
        <mxCell id="OqRflm8WI9M_x9Ui0r0l-191" value="" style="endArrow=none;html=1;rounded=0;exitX=0.5;exitY=0;exitDx=0;exitDy=0;entryX=0.5;entryY=0;entryDx=0;entryDy=0;" edge="1" source="OqRflm8WI9M_x9Ui0r0l-192" parent="1" target="OqRflm8WI9M_x9Ui0r0l-175">
          <mxGeometry width="50" height="50" relative="1" as="geometry">
            <mxPoint x="580" y="1090" as="sourcePoint" />
            <mxPoint x="560" y="1140" as="targetPoint" />
          </mxGeometry>
        </mxCell>
        <mxCell id="OqRflm8WI9M_x9Ui0r0l-192" value="" style="ellipse;whiteSpace=wrap;html=1;aspect=fixed;fillColor=#000000;" vertex="1" parent="1">
          <mxGeometry x="560" y="1100" width="20" height="20" as="geometry" />
        </mxCell>
        <mxCell id="OqRflm8WI9M_x9Ui0r0l-193" value="Ticket fiscal" style="text;html=1;align=center;verticalAlign=middle;resizable=0;points=[];autosize=1;strokeColor=none;fillColor=none;" vertex="1" parent="1">
          <mxGeometry x="525" y="1063" width="90" height="30" as="geometry" />
        </mxCell>
        <mxCell id="OqRflm8WI9M_x9Ui0r0l-194" value="Articulos" style="rounded=0;whiteSpace=wrap;html=1;" vertex="1" parent="1">
          <mxGeometry x="509.99999999999955" y="1500" width="120" height="70" as="geometry" />
        </mxCell>
        <mxCell id="OqRflm8WI9M_x9Ui0r0l-195" value="" style="endArrow=none;html=1;rounded=0;entryX=0;entryY=0;entryDx=0;entryDy=0;exitX=1;exitY=1;exitDx=0;exitDy=0;" edge="1" parent="1" source="OqRflm8WI9M_x9Ui0r0l-196" target="OqRflm8WI9M_x9Ui0r0l-194">
          <mxGeometry width="50" height="50" relative="1" as="geometry">
            <mxPoint x="604.9999999999995" y="1410" as="sourcePoint" />
            <mxPoint x="554.9999999999995" y="1470" as="targetPoint" />
          </mxGeometry>
        </mxCell>
        <mxCell id="OqRflm8WI9M_x9Ui0r0l-196" value="" style="ellipse;whiteSpace=wrap;html=1;aspect=fixed;rotation=-20;" vertex="1" parent="1">
          <mxGeometry x="444.99999999999955" y="1460" width="20" height="20" as="geometry" />
        </mxCell>
        <mxCell id="OqRflm8WI9M_x9Ui0r0l-197" value="" style="endArrow=none;html=1;rounded=0;entryX=0;entryY=0.25;entryDx=0;entryDy=0;exitX=0.875;exitY=0.283;exitDx=0;exitDy=0;exitPerimeter=0;" edge="1" parent="1" source="OqRflm8WI9M_x9Ui0r0l-198" target="OqRflm8WI9M_x9Ui0r0l-194">
          <mxGeometry width="50" height="50" relative="1" as="geometry">
            <mxPoint x="384.99999999999955" y="1544" as="sourcePoint" />
            <mxPoint x="454.99999999999955" y="1544" as="targetPoint" />
          </mxGeometry>
        </mxCell>
        <mxCell id="OqRflm8WI9M_x9Ui0r0l-198" value="" style="ellipse;whiteSpace=wrap;html=1;aspect=fixed;rotation=30;fillColor=#0A0A0A;" vertex="1" parent="1">
          <mxGeometry x="434.99999999999955" y="1500" width="20" height="20" as="geometry" />
        </mxCell>
        <mxCell id="OqRflm8WI9M_x9Ui0r0l-199" value="Preico" style="text;html=1;align=center;verticalAlign=middle;resizable=0;points=[];autosize=1;strokeColor=none;fillColor=none;" vertex="1" parent="1">
          <mxGeometry x="384.99999999999955" y="1450" width="60" height="30" as="geometry" />
        </mxCell>
        <mxCell id="OqRflm8WI9M_x9Ui0r0l-200" value="Nro unico" style="text;html=1;align=center;verticalAlign=middle;resizable=0;points=[];autosize=1;strokeColor=none;fillColor=none;" vertex="1" parent="1">
          <mxGeometry x="365" y="1490" width="70" height="30" as="geometry" />
        </mxCell>
        <mxCell id="OqRflm8WI9M_x9Ui0r0l-201" value="" style="endArrow=none;html=1;rounded=0;exitX=1;exitY=0.5;exitDx=0;exitDy=0;entryX=0;entryY=0.5;entryDx=0;entryDy=0;" edge="1" parent="1" source="OqRflm8WI9M_x9Ui0r0l-202" target="OqRflm8WI9M_x9Ui0r0l-194">
          <mxGeometry width="50" height="50" relative="1" as="geometry">
            <mxPoint x="425" y="1551" as="sourcePoint" />
            <mxPoint x="430" y="1597" as="targetPoint" />
          </mxGeometry>
        </mxCell>
        <mxCell id="OqRflm8WI9M_x9Ui0r0l-202" value="" style="ellipse;whiteSpace=wrap;html=1;aspect=fixed;" vertex="1" parent="1">
          <mxGeometry x="435" y="1536" width="20" height="20" as="geometry" />
        </mxCell>
        <mxCell id="OqRflm8WI9M_x9Ui0r0l-203" value="tamaño" style="text;html=1;align=center;verticalAlign=middle;resizable=0;points=[];autosize=1;strokeColor=none;fillColor=none;" vertex="1" parent="1">
          <mxGeometry x="375" y="1531" width="60" height="30" as="geometry" />
        </mxCell>
        <mxCell id="OqRflm8WI9M_x9Ui0r0l-204" value="" style="endArrow=none;html=1;rounded=0;entryX=0;entryY=1;entryDx=0;entryDy=0;exitX=0.5;exitY=0;exitDx=0;exitDy=0;" edge="1" parent="1" source="OqRflm8WI9M_x9Ui0r0l-205" target="OqRflm8WI9M_x9Ui0r0l-194">
          <mxGeometry width="50" height="50" relative="1" as="geometry">
            <mxPoint x="505" y="1625" as="sourcePoint" />
            <mxPoint x="505" y="1588" as="targetPoint" />
          </mxGeometry>
        </mxCell>
        <mxCell id="OqRflm8WI9M_x9Ui0r0l-205" value="" style="ellipse;whiteSpace=wrap;html=1;aspect=fixed;" vertex="1" parent="1">
          <mxGeometry x="485" y="1604" width="20" height="20" as="geometry" />
        </mxCell>
        <mxCell id="OqRflm8WI9M_x9Ui0r0l-206" value="Nombre" style="text;html=1;align=center;verticalAlign=middle;resizable=0;points=[];autosize=1;strokeColor=none;fillColor=none;" vertex="1" parent="1">
          <mxGeometry x="455" y="1620" width="70" height="30" as="geometry" />
        </mxCell>
        <mxCell id="OqRflm8WI9M_x9Ui0r0l-207" value="" style="endArrow=none;html=1;rounded=0;exitX=1;exitY=0;exitDx=0;exitDy=0;entryX=0;entryY=0.75;entryDx=0;entryDy=0;" edge="1" parent="1" source="OqRflm8WI9M_x9Ui0r0l-208" target="OqRflm8WI9M_x9Ui0r0l-194">
          <mxGeometry width="50" height="50" relative="1" as="geometry">
            <mxPoint x="415" y="1597" as="sourcePoint" />
            <mxPoint x="420" y="1643" as="targetPoint" />
          </mxGeometry>
        </mxCell>
        <mxCell id="OqRflm8WI9M_x9Ui0r0l-208" value="" style="ellipse;whiteSpace=wrap;html=1;aspect=fixed;" vertex="1" parent="1">
          <mxGeometry x="435" y="1575" width="20" height="20" as="geometry" />
        </mxCell>
        <mxCell id="OqRflm8WI9M_x9Ui0r0l-209" value="Stock" style="text;html=1;align=center;verticalAlign=middle;resizable=0;points=[];autosize=1;strokeColor=none;fillColor=none;" vertex="1" parent="1">
          <mxGeometry x="380" y="1574" width="50" height="30" as="geometry" />
        </mxCell>
        <mxCell id="OqRflm8WI9M_x9Ui0r0l-210" value="" style="endArrow=none;html=1;rounded=0;exitX=0.5;exitY=0;exitDx=0;exitDy=0;entryX=0.25;entryY=0;entryDx=0;entryDy=0;" edge="1" parent="1" source="OqRflm8WI9M_x9Ui0r0l-211" target="OqRflm8WI9M_x9Ui0r0l-194">
          <mxGeometry width="50" height="50" relative="1" as="geometry">
            <mxPoint x="502" y="1447" as="sourcePoint" />
            <mxPoint x="507" y="1493" as="targetPoint" />
          </mxGeometry>
        </mxCell>
        <mxCell id="OqRflm8WI9M_x9Ui0r0l-211" value="" style="ellipse;whiteSpace=wrap;html=1;aspect=fixed;rotation=-225;" vertex="1" parent="1">
          <mxGeometry x="475" y="1440" width="20" height="20" as="geometry" />
        </mxCell>
        <mxCell id="OqRflm8WI9M_x9Ui0r0l-212" value="Desc" style="text;html=1;align=center;verticalAlign=middle;resizable=0;points=[];autosize=1;strokeColor=none;fillColor=none;" vertex="1" parent="1">
          <mxGeometry x="445" y="1410" width="50" height="30" as="geometry" />
        </mxCell>
        <mxCell id="OqRflm8WI9M_x9Ui0r0l-213" value="" style="endArrow=none;html=1;rounded=0;entryX=0.5;entryY=1;entryDx=0;entryDy=0;exitX=0.5;exitY=0;exitDx=0;exitDy=0;" edge="1" parent="1" source="OqRflm8WI9M_x9Ui0r0l-214" target="OqRflm8WI9M_x9Ui0r0l-175">
          <mxGeometry width="50" height="50" relative="1" as="geometry">
            <mxPoint x="570" y="1320" as="sourcePoint" />
            <mxPoint x="660" y="1260" as="targetPoint" />
          </mxGeometry>
        </mxCell>
        <mxCell id="OqRflm8WI9M_x9Ui0r0l-214" value="Registra" style="rhombus;whiteSpace=wrap;html=1;" vertex="1" parent="1">
          <mxGeometry x="537.5" y="1330" width="65" height="63" as="geometry" />
        </mxCell>
        <mxCell id="OqRflm8WI9M_x9Ui0r0l-215" value="" style="endArrow=none;html=1;rounded=0;entryX=0.5;entryY=1;entryDx=0;entryDy=0;" edge="1" parent="1" source="OqRflm8WI9M_x9Ui0r0l-194" target="OqRflm8WI9M_x9Ui0r0l-214">
          <mxGeometry width="50" height="50" relative="1" as="geometry">
            <mxPoint x="580" y="1470" as="sourcePoint" />
            <mxPoint x="630" y="1420" as="targetPoint" />
          </mxGeometry>
        </mxCell>
        <mxCell id="OqRflm8WI9M_x9Ui0r0l-219" value="" style="endArrow=none;html=1;rounded=0;exitX=0.751;exitY=1.007;exitDx=0;exitDy=0;exitPerimeter=0;entryX=1;entryY=0;entryDx=0;entryDy=0;" edge="1" source="OqRflm8WI9M_x9Ui0r0l-220" target="OqRflm8WI9M_x9Ui0r0l-223" parent="1">
          <mxGeometry width="50" height="50" relative="1" as="geometry">
            <mxPoint x="850.9999999999995" y="1042" as="sourcePoint" />
            <mxPoint x="1021" y="998" as="targetPoint" />
          </mxGeometry>
        </mxCell>
        <mxCell id="OqRflm8WI9M_x9Ui0r0l-220" value="" style="ellipse;whiteSpace=wrap;html=1;aspect=fixed;rotation=20;fillColor=#0A0A0A;" vertex="1" parent="1">
          <mxGeometry x="1019.9999999999995" y="970" width="20" height="20" as="geometry" />
        </mxCell>
        <mxCell id="OqRflm8WI9M_x9Ui0r0l-223" value="Credito" style="rounded=0;whiteSpace=wrap;html=1;" vertex="1" parent="1">
          <mxGeometry x="909.9999999999995" y="1024" width="120" height="70" as="geometry" />
        </mxCell>
        <mxCell id="OqRflm8WI9M_x9Ui0r0l-229" value="Debito" style="rounded=0;whiteSpace=wrap;html=1;" vertex="1" parent="1">
          <mxGeometry x="909.9999999999995" y="1244" width="120" height="70" as="geometry" />
        </mxCell>
        <mxCell id="OqRflm8WI9M_x9Ui0r0l-236" value="Nro" style="text;html=1;align=center;verticalAlign=middle;resizable=0;points=[];autosize=1;strokeColor=none;fillColor=none;" vertex="1" parent="1">
          <mxGeometry x="1010" y="940" width="40" height="30" as="geometry" />
        </mxCell>
        <mxCell id="OqRflm8WI9M_x9Ui0r0l-241" value="" style="endArrow=none;html=1;rounded=0;exitX=1;exitY=0.25;exitDx=0;exitDy=0;entryX=0;entryY=0.5;entryDx=0;entryDy=0;" edge="1" parent="1" source="OqRflm8WI9M_x9Ui0r0l-229" target="GS_6FIzJK1WKwpxB1ejN-28">
          <mxGeometry width="50" height="50" relative="1" as="geometry">
            <mxPoint x="1090" y="1280" as="sourcePoint" />
            <mxPoint x="1120" y="1250" as="targetPoint" />
          </mxGeometry>
        </mxCell>
        <mxCell id="OqRflm8WI9M_x9Ui0r0l-242" value="" style="endArrow=none;html=1;rounded=0;exitX=1;exitY=0.5;exitDx=0;exitDy=0;entryX=0;entryY=0.5;entryDx=0;entryDy=0;" edge="1" parent="1" source="OqRflm8WI9M_x9Ui0r0l-223" target="GS_6FIzJK1WKwpxB1ejN-29">
          <mxGeometry width="50" height="50" relative="1" as="geometry">
            <mxPoint x="1120" y="1080" as="sourcePoint" />
            <mxPoint x="1120" y="1090" as="targetPoint" />
          </mxGeometry>
        </mxCell>
        <mxCell id="OqRflm8WI9M_x9Ui0r0l-243" value="Pago 2" style="rhombus;whiteSpace=wrap;html=1;" vertex="1" parent="1">
          <mxGeometry x="743.5" y="1059" width="63" height="60" as="geometry" />
        </mxCell>
        <mxCell id="OqRflm8WI9M_x9Ui0r0l-244" value="Pago 1" style="rhombus;whiteSpace=wrap;html=1;" vertex="1" parent="1">
          <mxGeometry x="650" y="940" width="63" height="60" as="geometry" />
        </mxCell>
        <mxCell id="OqRflm8WI9M_x9Ui0r0l-245" value="Pago 3" style="rhombus;whiteSpace=wrap;html=1;" vertex="1" parent="1">
          <mxGeometry x="728.5" y="1268" width="63" height="60" as="geometry" />
        </mxCell>
        <mxCell id="OqRflm8WI9M_x9Ui0r0l-246" value="" style="endArrow=none;html=1;rounded=0;exitX=1;exitY=0.25;exitDx=0;exitDy=0;entryX=0;entryY=0.5;entryDx=0;entryDy=0;" edge="1" parent="1" source="OqRflm8WI9M_x9Ui0r0l-175" target="OqRflm8WI9M_x9Ui0r0l-243">
          <mxGeometry width="50" height="50" relative="1" as="geometry">
            <mxPoint x="730" y="1200" as="sourcePoint" />
            <mxPoint x="780" y="1150" as="targetPoint" />
          </mxGeometry>
        </mxCell>
        <mxCell id="OqRflm8WI9M_x9Ui0r0l-247" value="" style="endArrow=none;html=1;rounded=0;exitX=1;exitY=0.5;exitDx=0;exitDy=0;entryX=0;entryY=0.5;entryDx=0;entryDy=0;" edge="1" parent="1" source="OqRflm8WI9M_x9Ui0r0l-243" target="OqRflm8WI9M_x9Ui0r0l-223">
          <mxGeometry width="50" height="50" relative="1" as="geometry">
            <mxPoint x="840" y="1150" as="sourcePoint" />
            <mxPoint x="890" y="1100" as="targetPoint" />
          </mxGeometry>
        </mxCell>
        <mxCell id="OqRflm8WI9M_x9Ui0r0l-248" value="" style="endArrow=none;html=1;rounded=0;exitX=1;exitY=1;exitDx=0;exitDy=0;entryX=0;entryY=0.5;entryDx=0;entryDy=0;" edge="1" parent="1" source="OqRflm8WI9M_x9Ui0r0l-175" target="OqRflm8WI9M_x9Ui0r0l-245">
          <mxGeometry width="50" height="50" relative="1" as="geometry">
            <mxPoint x="700" y="1240" as="sourcePoint" />
            <mxPoint x="750" y="1190" as="targetPoint" />
          </mxGeometry>
        </mxCell>
        <mxCell id="OqRflm8WI9M_x9Ui0r0l-249" value="" style="endArrow=none;html=1;rounded=0;entryX=0;entryY=0.5;entryDx=0;entryDy=0;exitX=1;exitY=0.5;exitDx=0;exitDy=0;" edge="1" parent="1" source="OqRflm8WI9M_x9Ui0r0l-245" target="OqRflm8WI9M_x9Ui0r0l-229">
          <mxGeometry width="50" height="50" relative="1" as="geometry">
            <mxPoint x="820" y="1350" as="sourcePoint" />
            <mxPoint x="870" y="1300" as="targetPoint" />
          </mxGeometry>
        </mxCell>
        <mxCell id="OqRflm8WI9M_x9Ui0r0l-250" value="" style="endArrow=none;html=1;rounded=0;exitX=1;exitY=0;exitDx=0;exitDy=0;entryX=0.5;entryY=1;entryDx=0;entryDy=0;" edge="1" parent="1" source="OqRflm8WI9M_x9Ui0r0l-175" target="OqRflm8WI9M_x9Ui0r0l-244">
          <mxGeometry width="50" height="50" relative="1" as="geometry">
            <mxPoint x="690" y="1070" as="sourcePoint" />
            <mxPoint x="740" y="1020" as="targetPoint" />
          </mxGeometry>
        </mxCell>
        <mxCell id="OqRflm8WI9M_x9Ui0r0l-251" value="" style="endArrow=none;html=1;rounded=0;exitX=0.5;exitY=0;exitDx=0;exitDy=0;entryX=0.5;entryY=1;entryDx=0;entryDy=0;" edge="1" parent="1" source="OqRflm8WI9M_x9Ui0r0l-244" target="OqRflm8WI9M_x9Ui0r0l-252">
          <mxGeometry width="50" height="50" relative="1" as="geometry">
            <mxPoint x="650" y="860" as="sourcePoint" />
            <mxPoint x="690" y="890" as="targetPoint" />
          </mxGeometry>
        </mxCell>
        <mxCell id="OqRflm8WI9M_x9Ui0r0l-252" value="Efectivo" style="rounded=0;whiteSpace=wrap;html=1;" vertex="1" parent="1">
          <mxGeometry x="623.4999999999995" y="790" width="120" height="70" as="geometry" />
        </mxCell>
        <mxCell id="OqRflm8WI9M_x9Ui0r0l-255" value="" style="endArrow=none;html=1;rounded=0;entryX=0;entryY=0.25;entryDx=0;entryDy=0;exitX=0.875;exitY=0.283;exitDx=0;exitDy=0;exitPerimeter=0;" edge="1" source="OqRflm8WI9M_x9Ui0r0l-256" target="OqRflm8WI9M_x9Ui0r0l-252" parent="1">
          <mxGeometry width="50" height="50" relative="1" as="geometry">
            <mxPoint x="549.9999999999995" y="834" as="sourcePoint" />
            <mxPoint x="619.9999999999995" y="834" as="targetPoint" />
          </mxGeometry>
        </mxCell>
        <mxCell id="OqRflm8WI9M_x9Ui0r0l-256" value="" style="ellipse;whiteSpace=wrap;html=1;aspect=fixed;rotation=30;fillColor=#0A0A0A;" vertex="1" parent="1">
          <mxGeometry x="579.9999999999995" y="790" width="20" height="20" as="geometry" />
        </mxCell>
        <mxCell id="OqRflm8WI9M_x9Ui0r0l-258" value="Constancia" style="text;html=1;align=center;verticalAlign=middle;resizable=0;points=[];autosize=1;strokeColor=none;fillColor=none;" vertex="1" parent="1">
          <mxGeometry x="500" y="780" width="80" height="30" as="geometry" />
        </mxCell>
        <mxCell id="OqRflm8WI9M_x9Ui0r0l-260" value="" style="endArrow=none;html=1;rounded=0;entryX=0.5;entryY=1;entryDx=0;entryDy=0;exitX=0.5;exitY=0;exitDx=0;exitDy=0;" edge="1" source="OqRflm8WI9M_x9Ui0r0l-261" parent="1" target="OqRflm8WI9M_x9Ui0r0l-243">
          <mxGeometry width="50" height="50" relative="1" as="geometry">
            <mxPoint x="768.5" y="1168.5" as="sourcePoint" />
            <mxPoint x="768.5" y="1131.5" as="targetPoint" />
          </mxGeometry>
        </mxCell>
        <mxCell id="OqRflm8WI9M_x9Ui0r0l-261" value="" style="ellipse;whiteSpace=wrap;html=1;aspect=fixed;" vertex="1" parent="1">
          <mxGeometry x="765" y="1135" width="20" height="20" as="geometry" />
        </mxCell>
        <mxCell id="OqRflm8WI9M_x9Ui0r0l-262" value="Cantidad Coutas" style="text;html=1;align=center;verticalAlign=middle;resizable=0;points=[];autosize=1;strokeColor=none;fillColor=none;" vertex="1" parent="1">
          <mxGeometry x="718.5" y="1154" width="110" height="30" as="geometry" />
        </mxCell>
        <mxCell id="OqRflm8WI9M_x9Ui0r0l-266" value="Bancos" style="rounded=0;whiteSpace=wrap;html=1;" vertex="1" parent="1">
          <mxGeometry x="1300.9999999999995" y="1418" width="120" height="70" as="geometry" />
        </mxCell>
        <mxCell id="OqRflm8WI9M_x9Ui0r0l-269" value="" style="endArrow=none;html=1;rounded=0;entryX=0;entryY=0.25;entryDx=0;entryDy=0;exitX=0.875;exitY=0.283;exitDx=0;exitDy=0;exitPerimeter=0;" edge="1" source="OqRflm8WI9M_x9Ui0r0l-270" target="OqRflm8WI9M_x9Ui0r0l-266" parent="1">
          <mxGeometry width="50" height="50" relative="1" as="geometry">
            <mxPoint x="1190.9999999999995" y="1462" as="sourcePoint" />
            <mxPoint x="1260.9999999999995" y="1462" as="targetPoint" />
          </mxGeometry>
        </mxCell>
        <mxCell id="OqRflm8WI9M_x9Ui0r0l-270" value="" style="ellipse;whiteSpace=wrap;html=1;aspect=fixed;rotation=30;fillColor=#0A0A0A;" vertex="1" parent="1">
          <mxGeometry x="1240.9999999999995" y="1418" width="20" height="20" as="geometry" />
        </mxCell>
        <mxCell id="OqRflm8WI9M_x9Ui0r0l-272" value="" style="endArrow=none;html=1;rounded=0;entryX=1;entryY=0.5;entryDx=0;entryDy=0;" edge="1" parent="1" source="OqRflm8WI9M_x9Ui0r0l-273" target="OqRflm8WI9M_x9Ui0r0l-229">
          <mxGeometry width="50" height="50" relative="1" as="geometry">
            <mxPoint x="1320" y="1320" as="sourcePoint" />
            <mxPoint x="1361" y="1205" as="targetPoint" />
            <Array as="points">
              <mxPoint x="1360" y="1279" />
            </Array>
          </mxGeometry>
        </mxCell>
        <mxCell id="OqRflm8WI9M_x9Ui0r0l-273" value="Tiene 4" style="rhombus;whiteSpace=wrap;html=1;" vertex="1" parent="1">
          <mxGeometry x="1331.5" y="1328" width="59" height="53" as="geometry" />
        </mxCell>
        <mxCell id="OqRflm8WI9M_x9Ui0r0l-274" value="" style="endArrow=none;html=1;rounded=0;entryX=0.5;entryY=1;entryDx=0;entryDy=0;exitX=0.5;exitY=0;exitDx=0;exitDy=0;" edge="1" parent="1" source="OqRflm8WI9M_x9Ui0r0l-266" target="OqRflm8WI9M_x9Ui0r0l-273">
          <mxGeometry width="50" height="50" relative="1" as="geometry">
            <mxPoint x="1190" y="1400" as="sourcePoint" />
            <mxPoint x="1240" y="1350" as="targetPoint" />
          </mxGeometry>
        </mxCell>
        <mxCell id="OqRflm8WI9M_x9Ui0r0l-275" value="Entidad" style="rounded=0;whiteSpace=wrap;html=1;" vertex="1" parent="1">
          <mxGeometry x="1429" y="1008" width="120" height="70" as="geometry" />
        </mxCell>
        <mxCell id="OqRflm8WI9M_x9Ui0r0l-276" value="Tiene 3" style="rhombus;whiteSpace=wrap;html=1;" vertex="1" parent="1">
          <mxGeometry x="1259" y="1017.5" width="59" height="53" as="geometry" />
        </mxCell>
        <mxCell id="OqRflm8WI9M_x9Ui0r0l-277" value="" style="endArrow=none;html=1;rounded=0;entryX=0;entryY=0.5;entryDx=0;entryDy=0;exitX=1;exitY=0.25;exitDx=0;exitDy=0;" edge="1" parent="1" source="OqRflm8WI9M_x9Ui0r0l-223" target="OqRflm8WI9M_x9Ui0r0l-276">
          <mxGeometry width="50" height="50" relative="1" as="geometry">
            <mxPoint x="1140" y="1044" as="sourcePoint" />
            <mxPoint x="1209" y="1054" as="targetPoint" />
          </mxGeometry>
        </mxCell>
        <mxCell id="OqRflm8WI9M_x9Ui0r0l-278" value="" style="endArrow=none;html=1;rounded=0;entryX=0;entryY=0.5;entryDx=0;entryDy=0;exitX=1;exitY=0.5;exitDx=0;exitDy=0;" edge="1" parent="1" source="OqRflm8WI9M_x9Ui0r0l-276" target="OqRflm8WI9M_x9Ui0r0l-275">
          <mxGeometry width="50" height="50" relative="1" as="geometry">
            <mxPoint x="1339" y="1044" as="sourcePoint" />
            <mxPoint x="1449" y="1044" as="targetPoint" />
          </mxGeometry>
        </mxCell>
        <mxCell id="OqRflm8WI9M_x9Ui0r0l-282" value="" style="endArrow=none;html=1;rounded=0;exitX=0.5;exitY=0;exitDx=0;exitDy=0;entryX=0.5;entryY=0;entryDx=0;entryDy=0;" edge="1" source="OqRflm8WI9M_x9Ui0r0l-283" parent="1" target="OqRflm8WI9M_x9Ui0r0l-275">
          <mxGeometry width="50" height="50" relative="1" as="geometry">
            <mxPoint x="1469" y="923" as="sourcePoint" />
            <mxPoint x="1474" y="969" as="targetPoint" />
          </mxGeometry>
        </mxCell>
        <mxCell id="OqRflm8WI9M_x9Ui0r0l-283" value="" style="ellipse;whiteSpace=wrap;html=1;aspect=fixed;fillColor=#000000;" vertex="1" parent="1">
          <mxGeometry x="1479" y="958" width="20" height="20" as="geometry" />
        </mxCell>
        <mxCell id="OqRflm8WI9M_x9Ui0r0l-284" value="Nombre" style="text;html=1;align=center;verticalAlign=middle;resizable=0;points=[];autosize=1;strokeColor=none;fillColor=none;" vertex="1" parent="1">
          <mxGeometry x="1454" y="928" width="70" height="30" as="geometry" />
        </mxCell>
        <mxCell id="OqRflm8WI9M_x9Ui0r0l-285" value="" style="endArrow=none;html=1;rounded=0;exitX=0;exitY=0.5;exitDx=0;exitDy=0;entryX=1;entryY=0.5;entryDx=0;entryDy=0;" edge="1" source="OqRflm8WI9M_x9Ui0r0l-286" parent="1" target="OqRflm8WI9M_x9Ui0r0l-275">
          <mxGeometry width="50" height="50" relative="1" as="geometry">
            <mxPoint x="1629" y="1036" as="sourcePoint" />
            <mxPoint x="1634" y="1082" as="targetPoint" />
          </mxGeometry>
        </mxCell>
        <mxCell id="OqRflm8WI9M_x9Ui0r0l-286" value="" style="ellipse;whiteSpace=wrap;html=1;aspect=fixed;" vertex="1" parent="1">
          <mxGeometry x="1599" y="1033" width="20" height="20" as="geometry" />
        </mxCell>
        <mxCell id="OqRflm8WI9M_x9Ui0r0l-287" value="Desc" style="text;html=1;align=center;verticalAlign=middle;resizable=0;points=[];autosize=1;strokeColor=none;fillColor=none;" vertex="1" parent="1">
          <mxGeometry x="1619" y="1029" width="50" height="30" as="geometry" />
        </mxCell>
        <mxCell id="OqRflm8WI9M_x9Ui0r0l-288" value="Nombre" style="text;html=1;align=center;verticalAlign=middle;resizable=0;points=[];autosize=1;strokeColor=none;fillColor=none;" vertex="1" parent="1">
          <mxGeometry x="1171" y="1410" width="70" height="30" as="geometry" />
        </mxCell>
        <mxCell id="OqRflm8WI9M_x9Ui0r0l-289" value="" style="endArrow=none;html=1;rounded=0;exitX=0.5;exitY=0;exitDx=0;exitDy=0;entryX=0;entryY=0;entryDx=0;entryDy=0;" edge="1" source="OqRflm8WI9M_x9Ui0r0l-290" parent="1" target="OqRflm8WI9M_x9Ui0r0l-266">
          <mxGeometry width="50" height="50" relative="1" as="geometry">
            <mxPoint x="1301" y="1365" as="sourcePoint" />
            <mxPoint x="1306" y="1411" as="targetPoint" />
          </mxGeometry>
        </mxCell>
        <mxCell id="OqRflm8WI9M_x9Ui0r0l-290" value="" style="ellipse;whiteSpace=wrap;html=1;aspect=fixed;" vertex="1" parent="1">
          <mxGeometry x="1291" y="1375" width="20" height="20" as="geometry" />
        </mxCell>
        <mxCell id="OqRflm8WI9M_x9Ui0r0l-291" value="Desc" style="text;html=1;align=center;verticalAlign=middle;resizable=0;points=[];autosize=1;strokeColor=none;fillColor=none;" vertex="1" parent="1">
          <mxGeometry x="1266" y="1338" width="50" height="30" as="geometry" />
        </mxCell>
        <mxCell id="OqRflm8WI9M_x9Ui0r0l-292" value="1,N" style="text;html=1;align=center;verticalAlign=middle;resizable=0;points=[];autosize=1;strokeColor=none;fillColor=none;" vertex="1" parent="1">
          <mxGeometry x="140" y="1038" width="40" height="30" as="geometry" />
        </mxCell>
        <mxCell id="OqRflm8WI9M_x9Ui0r0l-294" value="1,1" style="text;html=1;align=center;verticalAlign=middle;resizable=0;points=[];autosize=1;strokeColor=none;fillColor=none;" vertex="1" parent="1">
          <mxGeometry x="460" y="1128" width="40" height="30" as="geometry" />
        </mxCell>
        <mxCell id="OqRflm8WI9M_x9Ui0r0l-295" value="1,N" style="text;html=1;align=center;verticalAlign=middle;resizable=0;points=[];autosize=1;strokeColor=none;fillColor=none;" vertex="1" parent="1">
          <mxGeometry x="175" y="1350" width="40" height="30" as="geometry" />
        </mxCell>
        <mxCell id="OqRflm8WI9M_x9Ui0r0l-296" value="1,1" style="text;html=1;align=center;verticalAlign=middle;resizable=0;points=[];autosize=1;strokeColor=none;fillColor=none;" vertex="1" parent="1">
          <mxGeometry x="470" y="1200" width="40" height="30" as="geometry" />
        </mxCell>
        <mxCell id="OqRflm8WI9M_x9Ui0r0l-297" value="1,N" style="text;html=1;align=center;verticalAlign=middle;resizable=0;points=[];autosize=1;strokeColor=none;fillColor=none;" vertex="1" parent="1">
          <mxGeometry x="570" y="1218" width="40" height="30" as="geometry" />
        </mxCell>
        <mxCell id="OqRflm8WI9M_x9Ui0r0l-298" value="1,N" style="text;html=1;align=center;verticalAlign=middle;resizable=0;points=[];autosize=1;strokeColor=none;fillColor=none;" vertex="1" parent="1">
          <mxGeometry x="562.5" y="1470" width="40" height="30" as="geometry" />
        </mxCell>
        <mxCell id="OqRflm8WI9M_x9Ui0r0l-299" value="0,1" style="text;html=1;align=center;verticalAlign=middle;resizable=0;points=[];autosize=1;strokeColor=none;fillColor=none;" vertex="1" parent="1">
          <mxGeometry x="630" y="1198" width="40" height="30" as="geometry" />
        </mxCell>
        <mxCell id="OqRflm8WI9M_x9Ui0r0l-300" value="0,N" style="text;html=1;align=center;verticalAlign=middle;resizable=0;points=[];autosize=1;strokeColor=none;fillColor=none;" vertex="1" parent="1">
          <mxGeometry x="870" y="1278" width="40" height="30" as="geometry" />
        </mxCell>
        <mxCell id="OqRflm8WI9M_x9Ui0r0l-301" value="0,N" style="text;html=1;align=center;verticalAlign=middle;resizable=0;points=[];autosize=1;strokeColor=none;fillColor=none;" vertex="1" parent="1">
          <mxGeometry x="870" y="1068" width="40" height="30" as="geometry" />
        </mxCell>
        <mxCell id="OqRflm8WI9M_x9Ui0r0l-302" value="0,1" style="text;html=1;align=center;verticalAlign=middle;resizable=0;points=[];autosize=1;strokeColor=none;fillColor=none;" vertex="1" parent="1">
          <mxGeometry x="640" y="1138" width="40" height="30" as="geometry" />
        </mxCell>
        <mxCell id="OqRflm8WI9M_x9Ui0r0l-303" value="0,1" style="text;html=1;align=center;verticalAlign=middle;resizable=0;points=[];autosize=1;strokeColor=none;fillColor=none;" vertex="1" parent="1">
          <mxGeometry x="640" y="1078" width="40" height="30" as="geometry" />
        </mxCell>
        <mxCell id="OqRflm8WI9M_x9Ui0r0l-304" value="0,N" style="text;html=1;align=center;verticalAlign=middle;resizable=0;points=[];autosize=1;strokeColor=none;fillColor=none;" vertex="1" parent="1">
          <mxGeometry x="680" y="868" width="40" height="30" as="geometry" />
        </mxCell>
        <mxCell id="OqRflm8WI9M_x9Ui0r0l-305" value="1,1" style="text;html=1;align=center;verticalAlign=middle;resizable=0;points=[];autosize=1;strokeColor=none;fillColor=none;" vertex="1" parent="1">
          <mxGeometry x="1050" y="1003" width="40" height="30" as="geometry" />
        </mxCell>
        <mxCell id="OqRflm8WI9M_x9Ui0r0l-306" value="1,N" style="text;html=1;align=center;verticalAlign=middle;resizable=0;points=[];autosize=1;strokeColor=none;fillColor=none;" vertex="1" parent="1">
          <mxGeometry x="1379" y="1042" width="40" height="30" as="geometry" />
        </mxCell>
        <mxCell id="OqRflm8WI9M_x9Ui0r0l-307" value="1,N" style="text;html=1;align=center;verticalAlign=middle;resizable=0;points=[];autosize=1;strokeColor=none;fillColor=none;" vertex="1" parent="1">
          <mxGeometry x="1360" y="1388" width="40" height="30" as="geometry" />
        </mxCell>
        <mxCell id="OqRflm8WI9M_x9Ui0r0l-308" value="1,1" style="text;html=1;align=center;verticalAlign=middle;resizable=0;points=[];autosize=1;strokeColor=none;fillColor=none;" vertex="1" parent="1">
          <mxGeometry x="1311" y="1278" width="40" height="30" as="geometry" />
        </mxCell>
        <mxCell id="GS_6FIzJK1WKwpxB1ejN-1" value="" style="ellipse;whiteSpace=wrap;html=1;aspect=fixed;" vertex="1" parent="1">
          <mxGeometry x="-400" y="1300" width="22" height="22" as="geometry" />
        </mxCell>
        <mxCell id="GS_6FIzJK1WKwpxB1ejN-2" value="Direccion" style="text;html=1;align=center;verticalAlign=middle;resizable=0;points=[];autosize=1;strokeColor=none;fillColor=none;" vertex="1" parent="1">
          <mxGeometry x="-440" y="1322" width="70" height="30" as="geometry" />
        </mxCell>
        <mxCell id="GS_6FIzJK1WKwpxB1ejN-3" value="Tiene" style="rhombus;whiteSpace=wrap;html=1;" vertex="1" parent="1">
          <mxGeometry x="-620" y="1210" width="50" height="50" as="geometry" />
        </mxCell>
        <mxCell id="GS_6FIzJK1WKwpxB1ejN-4" value="" style="endArrow=none;html=1;rounded=0;entryX=0;entryY=0.5;entryDx=0;entryDy=0;exitX=1;exitY=0.5;exitDx=0;exitDy=0;" edge="1" parent="1" source="GS_6FIzJK1WKwpxB1ejN-5" target="GS_6FIzJK1WKwpxB1ejN-3">
          <mxGeometry width="50" height="50" relative="1" as="geometry">
            <mxPoint x="-700" y="1235" as="sourcePoint" />
            <mxPoint x="-780" y="1190" as="targetPoint" />
          </mxGeometry>
        </mxCell>
        <mxCell id="GS_6FIzJK1WKwpxB1ejN-5" value="Telefonos" style="rounded=0;whiteSpace=wrap;html=1;" vertex="1" parent="1">
          <mxGeometry x="-835.0000000000005" y="1200" width="120" height="70" as="geometry" />
        </mxCell>
        <mxCell id="GS_6FIzJK1WKwpxB1ejN-8" value="" style="endArrow=none;html=1;rounded=0;entryX=0;entryY=0.25;entryDx=0;entryDy=0;exitX=0.875;exitY=0.283;exitDx=0;exitDy=0;exitPerimeter=0;" edge="1" source="GS_6FIzJK1WKwpxB1ejN-9" target="GS_6FIzJK1WKwpxB1ejN-5" parent="1">
          <mxGeometry width="50" height="50" relative="1" as="geometry">
            <mxPoint x="-930.0000000000005" y="1254" as="sourcePoint" />
            <mxPoint x="-860.0000000000005" y="1254" as="targetPoint" />
          </mxGeometry>
        </mxCell>
        <mxCell id="GS_6FIzJK1WKwpxB1ejN-9" value="" style="ellipse;whiteSpace=wrap;html=1;aspect=fixed;rotation=30;fillColor=#0A0A0A;" vertex="1" parent="1">
          <mxGeometry x="-890.0000000000005" y="1208" width="20" height="20" as="geometry" />
        </mxCell>
        <mxCell id="GS_6FIzJK1WKwpxB1ejN-11" value="Telefono" style="text;html=1;align=center;verticalAlign=middle;resizable=0;points=[];autosize=1;strokeColor=none;fillColor=none;" vertex="1" parent="1">
          <mxGeometry x="-960" y="1200" width="70" height="30" as="geometry" />
        </mxCell>
        <mxCell id="GS_6FIzJK1WKwpxB1ejN-12" value="0,N" style="text;html=1;align=center;verticalAlign=middle;resizable=0;points=[];autosize=1;strokeColor=none;fillColor=none;" vertex="1" parent="1">
          <mxGeometry x="-720" y="1238" width="40" height="30" as="geometry" />
        </mxCell>
        <mxCell id="GS_6FIzJK1WKwpxB1ejN-13" value="1,N" style="text;html=1;align=center;verticalAlign=middle;resizable=0;points=[];autosize=1;strokeColor=none;fillColor=none;" vertex="1" parent="1">
          <mxGeometry x="-460" y="1208" width="40" height="30" as="geometry" />
        </mxCell>
        <mxCell id="GS_6FIzJK1WKwpxB1ejN-17" value="" style="endArrow=none;html=1;rounded=0;entryX=0;entryY=0.5;entryDx=0;entryDy=0;exitX=1;exitY=0.25;exitDx=0;exitDy=0;" edge="1" parent="1" source="OqRflm8WI9M_x9Ui0r0l-154" target="GS_6FIzJK1WKwpxB1ejN-18">
          <mxGeometry width="50" height="50" relative="1" as="geometry">
            <mxPoint x="-280" y="1170" as="sourcePoint" />
            <mxPoint x="-190" y="1160" as="targetPoint" />
          </mxGeometry>
        </mxCell>
        <mxCell id="GS_6FIzJK1WKwpxB1ejN-18" value="Es" style="rhombus;whiteSpace=wrap;html=1;" vertex="1" parent="1">
          <mxGeometry x="-165" y="1114" width="50" height="50" as="geometry" />
        </mxCell>
        <mxCell id="GS_6FIzJK1WKwpxB1ejN-19" value="Es 2" style="rhombus;whiteSpace=wrap;html=1;" vertex="1" parent="1">
          <mxGeometry x="-140" y="1298" width="50" height="50" as="geometry" />
        </mxCell>
        <mxCell id="GS_6FIzJK1WKwpxB1ejN-20" value="" style="endArrow=none;html=1;rounded=0;entryX=1;entryY=0.75;entryDx=0;entryDy=0;" edge="1" parent="1" target="OqRflm8WI9M_x9Ui0r0l-154">
          <mxGeometry width="50" height="50" relative="1" as="geometry">
            <mxPoint x="-140" y="1323" as="sourcePoint" />
            <mxPoint x="-160" y="1220" as="targetPoint" />
          </mxGeometry>
        </mxCell>
        <mxCell id="GS_6FIzJK1WKwpxB1ejN-21" value="" style="endArrow=none;html=1;rounded=0;entryX=1;entryY=0.5;entryDx=0;entryDy=0;exitX=0;exitY=0.5;exitDx=0;exitDy=0;" edge="1" parent="1" source="OqRflm8WI9M_x9Ui0r0l-136" target="GS_6FIzJK1WKwpxB1ejN-19">
          <mxGeometry width="50" height="50" relative="1" as="geometry">
            <mxPoint x="-40" y="1390" as="sourcePoint" />
            <mxPoint x="10" y="1340" as="targetPoint" />
          </mxGeometry>
        </mxCell>
        <mxCell id="GS_6FIzJK1WKwpxB1ejN-22" value="" style="endArrow=none;html=1;rounded=0;exitX=1;exitY=0.5;exitDx=0;exitDy=0;entryX=0;entryY=1;entryDx=0;entryDy=0;" edge="1" parent="1" source="GS_6FIzJK1WKwpxB1ejN-18" target="OqRflm8WI9M_x9Ui0r0l-123">
          <mxGeometry width="50" height="50" relative="1" as="geometry">
            <mxPoint x="-50" y="1140" as="sourcePoint" />
            <mxPoint y="1090" as="targetPoint" />
          </mxGeometry>
        </mxCell>
        <mxCell id="GS_6FIzJK1WKwpxB1ejN-23" value="0,1" style="text;html=1;align=center;verticalAlign=middle;resizable=0;points=[];autosize=1;strokeColor=none;fillColor=none;" vertex="1" parent="1">
          <mxGeometry x="-290" y="1238" width="40" height="30" as="geometry" />
        </mxCell>
        <mxCell id="GS_6FIzJK1WKwpxB1ejN-24" value="0,1" style="text;html=1;align=center;verticalAlign=middle;resizable=0;points=[];autosize=1;strokeColor=none;fillColor=none;" vertex="1" parent="1">
          <mxGeometry x="-280" y="1148" width="40" height="30" as="geometry" />
        </mxCell>
        <mxCell id="GS_6FIzJK1WKwpxB1ejN-25" value="1,1" style="text;html=1;align=center;verticalAlign=middle;resizable=0;points=[];autosize=1;strokeColor=none;fillColor=none;" vertex="1" parent="1">
          <mxGeometry x="-10" y="1388" width="40" height="30" as="geometry" />
        </mxCell>
        <mxCell id="GS_6FIzJK1WKwpxB1ejN-26" value="1,1" style="text;html=1;align=center;verticalAlign=middle;resizable=0;points=[];autosize=1;strokeColor=none;fillColor=none;" vertex="1" parent="1">
          <mxGeometry x="-10" y="1078" width="40" height="30" as="geometry" />
        </mxCell>
        <mxCell id="GS_6FIzJK1WKwpxB1ejN-28" value="Tiene 2" style="rhombus;whiteSpace=wrap;html=1;" vertex="1" parent="1">
          <mxGeometry x="1100" y="1203.5" width="59" height="53" as="geometry" />
        </mxCell>
        <mxCell id="GS_6FIzJK1WKwpxB1ejN-29" value="Tiene 1" style="rhombus;whiteSpace=wrap;html=1;" vertex="1" parent="1">
          <mxGeometry x="1100" y="1111" width="59" height="53" as="geometry" />
        </mxCell>
        <mxCell id="GS_6FIzJK1WKwpxB1ejN-31" value="" style="endArrow=none;html=1;rounded=0;entryX=1;entryY=0.5;entryDx=0;entryDy=0;" edge="1" parent="1" target="GS_6FIzJK1WKwpxB1ejN-29">
          <mxGeometry width="50" height="50" relative="1" as="geometry">
            <mxPoint x="1240" y="1200" as="sourcePoint" />
            <mxPoint x="1260" y="1110" as="targetPoint" />
          </mxGeometry>
        </mxCell>
        <mxCell id="GS_6FIzJK1WKwpxB1ejN-32" value="" style="endArrow=none;html=1;rounded=0;exitX=1;exitY=0.5;exitDx=0;exitDy=0;" edge="1" parent="1" source="GS_6FIzJK1WKwpxB1ejN-28">
          <mxGeometry width="50" height="50" relative="1" as="geometry">
            <mxPoint x="1220" y="1310" as="sourcePoint" />
            <mxPoint x="1430" y="1080" as="targetPoint" />
            <Array as="points">
              <mxPoint x="1330" y="1180" />
              <mxPoint x="1430" y="1170" />
            </Array>
          </mxGeometry>
        </mxCell>
        <mxCell id="GS_6FIzJK1WKwpxB1ejN-36" value="" style="ellipse;whiteSpace=wrap;html=1;aspect=fixed;rotation=20;fillColor=#0A0A0A;" vertex="1" parent="1">
          <mxGeometry x="1019.9999999999995" y="1198" width="20" height="20" as="geometry" />
        </mxCell>
        <mxCell id="GS_6FIzJK1WKwpxB1ejN-37" value="Nro" style="text;html=1;align=center;verticalAlign=middle;resizable=0;points=[];autosize=1;strokeColor=none;fillColor=none;" vertex="1" parent="1">
          <mxGeometry x="1010" y="1168" width="40" height="30" as="geometry" />
        </mxCell>
        <mxCell id="GS_6FIzJK1WKwpxB1ejN-38" value="" style="endArrow=none;html=1;rounded=0;exitX=1;exitY=0;exitDx=0;exitDy=0;" edge="1" parent="1" source="OqRflm8WI9M_x9Ui0r0l-229">
          <mxGeometry width="50" height="50" relative="1" as="geometry">
            <mxPoint x="1000" y="1250" as="sourcePoint" />
            <mxPoint x="1030" y="1220" as="targetPoint" />
            <Array as="points">
              <mxPoint x="1030" y="1230" />
            </Array>
          </mxGeometry>
        </mxCell>
        <mxCell id="GS_6FIzJK1WKwpxB1ejN-41" value="" style="endArrow=none;html=1;rounded=0;exitX=1;exitY=0;exitDx=0;exitDy=0;" edge="1" parent="1" source="OqRflm8WI9M_x9Ui0r0l-266">
          <mxGeometry width="50" height="50" relative="1" as="geometry">
            <mxPoint x="1450" y="1320" as="sourcePoint" />
            <mxPoint x="1250" y="1210" as="targetPoint" />
            <Array as="points">
              <mxPoint x="1440" y="1290" />
            </Array>
          </mxGeometry>
        </mxCell>
        <mxCell id="GS_6FIzJK1WKwpxB1ejN-42" value="1,1" style="text;html=1;align=center;verticalAlign=middle;resizable=0;points=[];autosize=1;strokeColor=none;fillColor=none;" vertex="1" parent="1">
          <mxGeometry x="1040" y="1048" width="40" height="30" as="geometry" />
        </mxCell>
        <mxCell id="GS_6FIzJK1WKwpxB1ejN-43" value="1,N" style="text;html=1;align=center;verticalAlign=middle;resizable=0;points=[];autosize=1;strokeColor=none;fillColor=none;" vertex="1" parent="1">
          <mxGeometry x="1445" y="1368" width="40" height="30" as="geometry" />
        </mxCell>
        <mxCell id="GS_6FIzJK1WKwpxB1ejN-44" value="1,N" style="text;html=1;align=center;verticalAlign=middle;resizable=0;points=[];autosize=1;strokeColor=none;fillColor=none;" vertex="1" parent="1">
          <mxGeometry x="1430" y="1078" width="40" height="30" as="geometry" />
        </mxCell>
        <mxCell id="GS_6FIzJK1WKwpxB1ejN-45" value="1,1" style="text;html=1;align=center;verticalAlign=middle;resizable=0;points=[];autosize=1;strokeColor=none;fillColor=none;" vertex="1" parent="1">
          <mxGeometry x="1050" y="1242" width="40" height="30" as="geometry" />
        </mxCell>
        <mxCell id="GS_6FIzJK1WKwpxB1ejN-46" value="" style="endArrow=none;html=1;rounded=0;entryX=1;entryY=0.5;entryDx=0;entryDy=0;exitX=0;exitY=0.5;exitDx=0;exitDy=0;" edge="1" source="GS_6FIzJK1WKwpxB1ejN-47" parent="1" target="OqRflm8WI9M_x9Ui0r0l-214">
          <mxGeometry width="50" height="50" relative="1" as="geometry">
            <mxPoint x="680" y="1354" as="sourcePoint" />
            <mxPoint x="695" y="1380" as="targetPoint" />
          </mxGeometry>
        </mxCell>
        <mxCell id="GS_6FIzJK1WKwpxB1ejN-47" value="" style="ellipse;whiteSpace=wrap;html=1;aspect=fixed;" vertex="1" parent="1">
          <mxGeometry x="650" y="1351.5" width="20" height="20" as="geometry" />
        </mxCell>
        <mxCell id="GS_6FIzJK1WKwpxB1ejN-48" value="Cantidad vendida" style="text;html=1;align=center;verticalAlign=middle;resizable=0;points=[];autosize=1;strokeColor=none;fillColor=none;" vertex="1" parent="1">
          <mxGeometry x="671.5" y="1348" width="120" height="30" as="geometry" />
        </mxCell>
        <mxCell id="GS_6FIzJK1WKwpxB1ejN-50" value="" style="endArrow=none;html=1;rounded=0;exitX=1;exitY=0.5;exitDx=0;exitDy=0;entryX=0;entryY=0.5;entryDx=0;entryDy=0;" edge="1" source="GS_6FIzJK1WKwpxB1ejN-51" parent="1" target="OqRflm8WI9M_x9Ui0r0l-214">
          <mxGeometry width="50" height="50" relative="1" as="geometry">
            <mxPoint x="475" y="1340" as="sourcePoint" />
            <mxPoint x="480" y="1386" as="targetPoint" />
            <Array as="points">
              <mxPoint x="490" y="1360" />
            </Array>
          </mxGeometry>
        </mxCell>
        <mxCell id="GS_6FIzJK1WKwpxB1ejN-51" value="" style="ellipse;whiteSpace=wrap;html=1;aspect=fixed;" vertex="1" parent="1">
          <mxGeometry x="465" y="1350" width="20" height="20" as="geometry" />
        </mxCell>
        <mxCell id="GS_6FIzJK1WKwpxB1ejN-52" value="Total venta" style="text;html=1;align=center;verticalAlign=middle;resizable=0;points=[];autosize=1;strokeColor=none;fillColor=none;" vertex="1" parent="1">
          <mxGeometry x="385" y="1341.5" width="80" height="30" as="geometry" />
        </mxCell>
      </root>
    </mxGraphModel>
  </diagram>
</mxfile>
